<?xml version="1.0" encoding="UTF-8" standalone="no"?>
<!-- Created with Inkscape (http://www.inkscape.org/) -->

<svg
   xmlns:dc="http://purl.org/dc/elements/1.1/"
   xmlns:cc="http://creativecommons.org/ns#"
   xmlns:rdf="http://www.w3.org/1999/02/22-rdf-syntax-ns#"
   xmlns:svg="http://www.w3.org/2000/svg"
   xmlns="http://www.w3.org/2000/svg"
   xmlns:sodipodi="http://sodipodi.sourceforge.net/DTD/sodipodi-0.dtd"
   xmlns:inkscape="http://www.inkscape.org/namespaces/inkscape"
   width="210mm"
   height="297mm"
   viewBox="0 0 210 297"
   version="1.1"
   id="svg880"
   inkscape:version="0.92.3 (2405546, 2018-03-11)"
   sodipodi:docname="list.svg">
  <defs
     id="defs874" />
  <sodipodi:namedview
     id="base"
     pagecolor="#ffffff"
     bordercolor="#666666"
     borderopacity="1.0"
     inkscape:pageopacity="0.0"
     inkscape:pageshadow="2"
     inkscape:zoom="1.7550694"
     inkscape:cx="331.8957"
     inkscape:cy="560.71542"
     inkscape:document-units="mm"
     inkscape:current-layer="layer1"
     showgrid="false"
     inkscape:window-width="1920"
     inkscape:window-height="1025"
     inkscape:window-x="1080"
     inkscape:window-y="969"
     inkscape:window-maximized="1" />
  <metadata
     id="metadata877">
    <rdf:RDF>
      <cc:Work
         rdf:about="">
        <dc:format>image/svg+xml</dc:format>
        <dc:type
           rdf:resource="http://purl.org/dc/dcmitype/StillImage" />
        <dc:title></dc:title>
      </cc:Work>
    </rdf:RDF>
  </metadata>
  <g
     inkscape:label="Layer 1"
     inkscape:groupmode="layer"
     id="layer1">
    <rect
       style="fill:none;fill-opacity:1;stroke:#000000;stroke-width:0.40000001;stroke-linejoin:round;stroke-miterlimit:4;stroke-dasharray:none;stroke-opacity:1"
       id="rect815"
       width="22.861132"
       height="23.740406"
       x="35.951859"
       y="55.924599"
       inkscape:export-xdpi="96"
       inkscape:export-ydpi="96" />
    <rect
       y="55.700611"
       x="71.846886"
       height="23.740406"
       width="22.861134"
       id="rect2251-3"
       style="fill:none;fill-opacity:1;stroke:#000000;stroke-width:0.40000001;stroke-linejoin:round;stroke-miterlimit:4;stroke-dasharray:none;stroke-opacity:1"
       inkscape:export-xdpi="96"
       inkscape:export-ydpi="96" />
    <rect
       y="56.148582"
       x="110.74434"
       height="23.740406"
       width="22.861134"
       id="rect2251-3-7"
       style="fill:none;fill-opacity:1;stroke:#000000;stroke-width:0.40000001;stroke-linejoin:round;stroke-miterlimit:4;stroke-dasharray:none;stroke-opacity:1"
       inkscape:export-xdpi="96"
       inkscape:export-ydpi="96" />
    <rect
       y="-58.922585"
       x="103.0747"
       height="23.740406"
       width="22.861132"
       id="rect2251"
       style="fill:none;fill-opacity:1;stroke:#000000;stroke-width:0.40000001;stroke-linejoin:round;stroke-miterlimit:4;stroke-dasharray:none;stroke-opacity:1"
       inkscape:export-xdpi="96"
       inkscape:export-ydpi="96"
       transform="rotate(90)" />
    <rect
       y="-58.922585"
       x="128.10811"
       height="23.740406"
       width="22.861134"
       id="rect2251-3-6"
       style="fill:none;fill-opacity:1;stroke:#000000;stroke-width:0.40000001;stroke-linejoin:round;stroke-miterlimit:4;stroke-dasharray:none;stroke-opacity:1"
       inkscape:export-xdpi="96"
       inkscape:export-ydpi="96"
       transform="rotate(90)" />
    <path
       style="fill:#000000;fill-opacity:1;stroke:#000000;stroke-width:0.26499999;stroke-linejoin:round;stroke-miterlimit:4;stroke-dasharray:none;stroke-opacity:1"
       id="path1493"
       d="m 39.237485,110.38804 c -0.06091,0.69296 -0.202407,1.37389 -0.309071,2.06039 -0.07625,0.49159 -0.100795,0.98819 -0.111355,1.4848 -0.0059,0.41467 -0.0043,0.82939 -0.0019,1.24407 0.0016,0.2449 0.0019,0.48979 0.0024,0.73469 7.94e-4,0.15034 5.29e-4,0.30067 0.0013,0.45101 1.22e-4,0.0352 5.29e-4,0.0704 7.94e-4,0.10562 -0.736169,-0.0362 -0.669274,0.0888 -0.670843,-0.31122 4e-5,-0.19998 0.0013,-0.39997 0.0013,-0.59995 5.29e-4,-0.33098 0.0011,-0.66195 4.7e-5,-0.99292 0.07449,-0.33443 0.11783,-0.6791 0.210794,-1.00881 0.09414,-0.24609 0.165309,-0.49657 0.276722,-0.7352 0.09185,-0.20591 0.219086,-0.39583 0.361336,-0.57024 0.311881,-0.37339 0.793369,-0.26609 1.23565,-0.2642 0.337256,0.12063 0.433212,0.38914 0.557863,0.69458 0.125555,0.31555 0.210587,0.63744 0.244123,0.97476 0.01945,0.24007 0.02455,0.48119 0.02424,0.72199 -0.0013,0.22035 -0.0024,0.4407 -0.0027,0.66105 -1.72e-4,0.2279 -5.29e-4,0.4558 -0.0011,0.68371 5.29e-4,0.20569 2.35e-4,0.41138 0.0013,0.61708 2.22e-4,0.0436 5.29e-4,0.0872 0.0011,0.13082 -1.77e-4,8e-4 4.5e-5,10e-4 6.6e-5,0.002 0,0 -0.671944,2e-5 -0.671944,2e-5 v 0 c 2.2e-5,-7.9e-4 2.23e-4,-10e-4 6.7e-5,-0.002 5.29e-4,-0.0436 7.93e-4,-0.0872 0.0011,-0.13083 0.0011,-0.2057 7.94e-4,-0.41139 0.0013,-0.61709 -5.29e-4,-0.22795 -7.94e-4,-0.45591 -3.2e-5,-0.68386 7.94e-4,-0.22031 0.0016,-0.44062 0.0021,-0.66093 -2.9e-5,-0.23853 -0.0011,-0.47737 -0.02167,-0.7152 -0.03435,-0.33038 -0.118559,-0.64691 -0.242895,-0.95559 -0.118705,-0.28771 -0.219046,-0.54426 -0.553717,-0.62164 1.118751,-0.0301 0.304683,-0.0632 0.09224,0.21179 -0.142923,0.1673 -0.27015,0.35223 -0.361222,0.55286 -0.109588,0.23631 -0.183624,0.48147 -0.277866,0.72493 -0.0962,0.32213 -0.130646,0.66296 -0.209576,0.99001 -0.0011,0.33097 -2.65e-4,0.66195 4.2e-5,0.99292 -8.5e-5,0.19999 0.0013,0.39997 0.0013,0.59995 -0.0016,0.39997 0.0655,0.27494 -0.67083,0.3112 2.65e-4,-0.0352 7.94e-4,-0.0704 7.94e-4,-0.1056 7.94e-4,-0.15032 2.64e-4,-0.30063 7.94e-4,-0.45094 3.7e-5,-0.24486 -7.94e-4,-0.48971 -7.94e-4,-0.73457 8.7e-5,-0.41522 -0.0013,-0.83047 0.0044,-1.24567 0.01064,-0.49972 0.03563,-0.99921 0.114208,-1.49366 0.108175,-0.6858 0.254381,-1.36579 0.304757,-2.05957 0,0 0.665457,0.009 0.665457,0.009 z"
       inkscape:connector-curvature="0"
       inkscape:export-xdpi="96"
       inkscape:export-ydpi="96" />
    <path
       style="fill:#000000;fill-opacity:1;stroke:#000000;stroke-width:0.26499999;stroke-linejoin:round;stroke-miterlimit:4;stroke-dasharray:none;stroke-opacity:1"
       id="path1495"
       d="m 43.057909,113.50357 c -0.110802,-0.008 -0.343429,0.0867 -0.332409,-0.0238 0.01125,-0.11287 0.226227,-0.0191 0.338381,-0.0361 0.317111,-0.048 0.617868,-0.15041 0.921634,-0.24834 0.165827,-0.046 0.329898,-0.0813 0.422486,-0.23721 0.03538,-0.16046 0.02156,-0.32928 0.01892,-0.49274 0.02011,-0.19659 -0.120261,-0.3198 -0.240784,-0.45839 -0.171974,-0.20315 -0.25014,-0.2959 -0.526132,-0.28305 1.112372,-0.0509 0.374407,0.0193 0.100833,0.12634 -0.307073,0.13568 -0.489519,0.36721 -0.653,0.65063 -0.214921,0.415 -0.333409,0.85473 -0.41289,1.31243 -0.06767,0.38649 -0.08365,0.76602 -0.01013,1.15075 0.07679,0.39975 0.246502,0.79464 0.47107,1.13422 0.118017,0.17217 0.299484,0.27474 0.499038,0.3234 0.24147,-0.0184 0.660488,0.10673 -0.353417,-0.0169 -0.08192,-0.01 0.15439,-0.0591 0.228169,-0.0961 0.245176,-0.13464 0.447212,-0.32846 0.6483,-0.51968 0.08037,-0.0772 0.159523,-0.15565 0.236996,-0.23574 0.0019,-0.005 0.0081,-0.007 0.01,-0.008 0,0 0.67046,0.0439 0.67046,0.0439 v 0 c -0.0034,0.005 -0.0047,0.0123 -0.01098,0.0153 -0.07845,0.0815 -0.159806,0.16022 -0.241311,0.2387 -0.203848,0.19399 -0.404931,0.39473 -0.650015,0.53716 -0.360831,0.21085 -0.797788,0.19004 -1.202846,0.12735 -0.202925,-0.0702 -0.381357,-0.18711 -0.499015,-0.37131 -0.219448,-0.35321 -0.396248,-0.74982 -0.471868,-1.15967 -0.07386,-0.39279 -0.05785,-0.7805 0.01177,-1.1747 0.08165,-0.46453 0.197419,-0.91198 0.412152,-1.33512 0.164033,-0.29695 0.345538,-0.54039 0.654661,-0.69631 0.415557,-0.16174 0.727943,-0.19255 1.222047,-0.15029 0.245015,0.0165 0.384217,0.1535 0.532691,0.3396 0.12742,0.15131 0.265461,0.29382 0.24293,0.50472 0.0021,0.17531 0.01492,0.35371 -0.01799,0.52681 -0.0898,0.18118 -0.237853,0.24704 -0.431546,0.28787 -0.739802,0.23357 -1.448792,0.3995 -2.244662,0.3284 0,0 0.656492,-0.10398 0.656492,-0.10398 z"
       inkscape:connector-curvature="0"
       inkscape:export-xdpi="96"
       inkscape:export-ydpi="96" />
    <path
       style="fill:#000000;fill-opacity:1;stroke:#000000;stroke-width:0.26499999;stroke-linejoin:round;stroke-miterlimit:4;stroke-dasharray:none;stroke-opacity:1"
       id="path1497"
       d="m 47.076099,109.76861 c -0.110093,1.06628 -0.147182,2.13841 -0.176808,3.20941 -0.01836,0.74044 -0.02328,1.48113 -0.02215,2.22177 0.0011,0.25078 0.0016,0.50156 0.0045,0.75233 0.0037,0.29659 0.03909,0.0832 -0.668144,-0.0662 0,0 0.667136,2e-5 0.667136,2e-5 v 0 c -0.701228,0.14924 -0.670084,0.36386 -0.66916,0.0665 0.0011,-0.25091 0.0011,-0.50183 0.0026,-0.75273 0.0043,-0.74125 0.009,-1.48257 0.03122,-2.22354 0.03299,-1.07258 0.07296,-2.14558 0.167177,-3.21484 0,0 0.663675,0.007 0.663675,0.007 z"
       inkscape:connector-curvature="0"
       inkscape:export-xdpi="96"
       inkscape:export-ydpi="96" />
    <path
       style="fill:#000000;fill-opacity:1;stroke:#000000;stroke-width:0.26499999;stroke-linejoin:round;stroke-miterlimit:4;stroke-dasharray:none;stroke-opacity:1"
       id="path1499"
       d="m 48.671293,110.18612 c -0.0063,0.8858 -0.0045,1.77162 -0.004,2.65743 5.29e-4,0.71542 0.0016,1.43083 0.0028,2.14624 7.93e-4,0.42788 0.0011,0.85576 0.0021,1.28364 5.3e-4,0.13569 0.0011,0.27139 0.0024,0.40708 5.29e-4,0.0389 -2.65e-4,0.0778 -2.65e-4,0.11677 8.7e-5,0.0411 2.9e-5,0.0215 1.69e-4,0.0587 0,0 -0.67106,0 -0.67106,0 v 0 c 1.41e-4,-0.0372 8e-5,-0.0176 1.67e-4,-0.0587 -1.1e-5,-0.0389 -7.94e-4,-0.0778 -2.65e-4,-0.11677 0.0013,-0.13569 0.0021,-0.27139 0.0024,-0.40708 0.0011,-0.42788 0.0013,-0.85576 0.0021,-1.28364 0.0011,-0.71541 0.0021,-1.43082 0.0028,-2.14624 5.29e-4,-0.88581 0.0021,-1.77163 -0.004,-2.65743 0,0 0.664675,0 0.664675,0 z"
       inkscape:connector-curvature="0"
       inkscape:export-xdpi="96"
       inkscape:export-ydpi="96" />
    <path
       style="fill:#000000;fill-opacity:1;stroke:#000000;stroke-width:0.26499999;stroke-linejoin:round;stroke-miterlimit:4;stroke-dasharray:none;stroke-opacity:1"
       id="path1501"
       d="m 52.093067,113.02341 c -0.543605,0.31645 -0.929425,0.8013 -1.258712,1.32534 -0.230476,0.38458 -0.328179,0.80209 -0.365004,1.24285 -0.01466,0.2618 -0.04472,0.51568 0.05377,0.76147 0.08541,0.20509 0.343263,0.2654 0.535752,0.34239 0.254895,0.1049 0.531755,0.13964 0.804752,0.15978 0.374996,0.0158 -0.294185,0.003 -0.440026,-0.0128 -0.03572,-0.004 0.06932,-0.0192 0.103296,-0.0309 0.08973,-0.0309 0.176837,-0.0686 0.267136,-0.0984 0.178134,-0.0656 0.32053,-0.15767 0.415436,-0.32268 0.126775,-0.13606 0.280307,-0.2171 0.374073,-0.3831 0.18179,-0.24456 0.257495,-0.5313 0.308271,-0.82646 0.04113,-0.3051 0.04248,-0.61334 0.04421,-0.92058 -0.02416,-0.20508 0.04392,-0.4344 -0.02968,-0.63045 -0.115038,-0.24535 -0.236188,-0.48739 -0.369734,-0.72373 -0.156604,-0.21504 -0.269576,-0.49697 -0.531839,-0.59365 -0.2315,-0.0472 -0.805249,-0.15363 0.259868,-0.0312 0.0841,0.01 -0.161237,0.0529 -0.23799,0.0886 -0.295568,0.18183 -0.546237,0.42466 -0.794512,0.6646 0,0 -0.66421,-0.0534 -0.66421,-0.0534 v 0 c 0.251418,-0.24336 0.504156,-0.48832 0.795555,-0.68432 0.391848,-0.2185 0.886635,-0.20519 1.305126,-0.0606 0.251304,0.13533 0.375227,0.4082 0.53313,0.63587 0.134287,0.24045 0.26117,0.48484 0.37329,0.73638 0.06229,0.20921 0.01206,0.43633 0.02791,0.65223 -0.0016,0.31088 -0.004,0.62263 -0.04461,0.93141 -0.05016,0.29997 -0.12074,0.60003 -0.307644,0.84754 -0.08624,0.17577 -0.213628,0.27611 -0.372483,0.38454 -0.09696,0.1831 -0.22828,0.29188 -0.420619,0.3732 -0.413599,0.12644 -0.785736,0.28194 -1.254432,0.15677 -0.274992,-0.0269 -0.551553,-0.0683 -0.806606,-0.18014 -0.211217,-0.09 -0.458071,-0.15904 -0.541327,-0.39594 -0.09795,-0.25645 -0.06715,-0.52112 -0.05094,-0.79186 0.03692,-0.45151 0.135453,-0.87909 0.36922,-1.27427 0.328375,-0.53029 0.713592,-1.02829 1.257398,-1.35373 0,0 0.662183,0.0653 0.662183,0.0653 z"
       inkscape:connector-curvature="0"
       inkscape:export-xdpi="96"
       inkscape:export-ydpi="96" />
    <path
       style="fill:#000000;fill-opacity:1;stroke:#000000;stroke-width:0.26499999;stroke-linejoin:round;stroke-miterlimit:4;stroke-dasharray:none;stroke-opacity:1"
       id="path1503"
       d="m 38.831064,139.30842 c -0.126388,0.75516 -0.08129,1.51966 -0.03925,2.27967 0.0099,0.28951 0.0477,0.5773 0.06413,0.86627 -7.93e-4,0.12344 -0.01148,0.14102 0.104466,0.16455 0.214664,0.0212 0.551587,0.0219 -0.455504,-0.0149 0.230809,-0.0757 0.343093,-0.32266 0.435232,-0.5315 0.167732,-0.30252 0.237347,-0.64201 0.355068,-0.96305 0.115414,-0.19985 0.157488,-0.42835 0.245017,-0.63788 0.10396,-0.15942 0.159771,-0.33509 0.195874,-0.52 0.01714,-0.12224 0.02347,-0.24579 0.02389,-0.36914 -0.0048,-0.2641 -0.07462,-0.0515 0.668136,0.0342 0.08684,0.382 0.176525,0.76095 0.30815,1.13062 0.15335,0.39784 0.322977,0.79965 0.55622,1.15843 0.121306,0.22367 0.26234,0.43605 0.406114,0.64576 0.06348,0.0993 0.157729,0.16638 0.210857,0.27196 0.05441,0.0857 0.04524,0.2035 0.111506,0.27904 0.233212,0.30026 0.386183,0.20325 -0.484608,0.11304 0.08305,-0.35303 0.147355,-0.70707 0.186447,-1.06849 0.01659,-0.48739 0.06189,-0.96504 0.15577,-1.44349 0.06383,-0.30666 0.09594,-0.61826 0.114115,-0.93055 0.0088,-0.16614 0.0083,-0.33259 0.0074,-0.4989 -5.3e-4,-0.0599 -0.0011,-0.11973 -0.0024,-0.17959 1.8e-4,-0.002 -2.06e-4,-0.005 -2.64e-4,-0.007 0,0 0.671925,-0.003 0.671925,-0.003 v 0 c 1.6e-5,0.003 4.8e-5,0.006 4.5e-5,0.009 1.48e-4,0.0601 1.8e-4,0.12023 1.8e-4,0.18035 -5.3e-5,0.16775 0.0021,0.33571 -0.0086,0.50321 -0.02082,0.31518 -0.05238,0.62992 -0.117399,0.93951 -0.09665,0.47618 -0.141896,0.9517 -0.157051,1.43746 -0.0386,0.36517 -0.101783,0.72346 -0.181338,1.08069 -0.649758,0.092 -0.60271,0.24723 -0.853064,-0.0928 -0.04937,-0.09 -0.06216,-0.1929 -0.11121,-0.28412 -0.0619,-0.0955 -0.153693,-0.16687 -0.210536,-0.26667 -0.140904,-0.2117 -0.279676,-0.42526 -0.403125,-0.64773 -0.228806,-0.36656 -0.40123,-0.77072 -0.553768,-1.17367 -0.132519,-0.37723 -0.228205,-0.76368 -0.314481,-1.15369 0.652521,-0.0834 0.671555,-0.30603 0.671984,-0.033 -0.0021,0.12743 -0.0096,0.2549 -0.02574,0.38137 -0.03699,0.18876 -0.08564,0.37461 -0.197176,0.53503 -0.09651,0.20313 -0.12166,0.43973 -0.246575,0.63377 -0.122116,0.32025 -0.186333,0.66299 -0.355034,0.96613 -0.09092,0.21933 -0.212426,0.49001 -0.438613,0.5902 -0.272299,0.0139 -0.594241,0.10354 -0.872755,0.0128 -0.110754,-0.051 -0.111305,-0.13304 -0.108743,-0.24421 -0.01699,-0.28895 -0.04311,-0.57739 -0.05469,-0.86668 -0.03793,-0.76397 -0.08308,-1.53152 0.0349,-2.2914 0,0 0.664567,0.008 0.664567,0.008 z"
       inkscape:connector-curvature="0"
       inkscape:export-xdpi="96"
       inkscape:export-ydpi="96" />
    <path
       style="fill:#000000;fill-opacity:1;stroke:#000000;stroke-width:0.26499999;stroke-linejoin:round;stroke-miterlimit:4;stroke-dasharray:none;stroke-opacity:1"
       id="path1505"
       d="m 44.404171,139.95871 c -0.130061,0.53954 -0.331793,1.05732 -0.479682,1.59146 -0.07965,0.31565 -0.118946,0.63881 -0.136816,0.96326 -0.01307,0.14667 0.182698,0.11033 0.285684,0.15216 0.164661,0.0943 0.328335,0.13888 0.514792,0.16226 0.232765,-0.007 0.70767,0.11233 -0.320178,-0.005 -0.03763,-0.004 0.07301,-0.0202 0.109329,-0.0309 0.147857,-0.0438 0.09165,-0.0233 0.228042,-0.09 0.234534,-0.18741 0.465254,-0.41141 0.612359,-0.67617 0.10042,-0.2383 0.131831,-0.49278 0.143381,-0.74855 0.01635,-0.27598 0.0086,-0.53995 -0.06275,-0.80691 -0.04382,-0.25338 -0.138602,-0.48541 -0.309589,-0.67838 -0.169971,-0.14274 -0.407157,-0.37201 -0.644086,-0.35227 0.966692,-0.0516 0.501224,-0.0152 0.224878,0.23183 -0.0136,0.009 -0.02721,0.0178 -0.04082,0.0267 0,0 -0.66498,-0.0863 -0.66498,-0.0863 v 0 c 0.01286,0.001 0.02574,0.003 0.03859,0.004 0.356685,-0.33006 0.49507,-0.3247 1.103445,-0.2767 0.249756,0.0503 0.471773,0.23278 0.649544,0.40669 0.163211,0.21034 0.266501,0.44305 0.309737,0.70725 0.07173,0.27354 0.07936,0.54488 0.06404,0.82709 -0.01125,0.26581 -0.04679,0.52893 -0.145331,0.77831 -0.144195,0.28061 -0.384214,0.50432 -0.614526,0.71482 -0.399352,0.24113 -0.89036,0.19434 -1.342806,0.14984 -0.184562,-0.0295 -0.34762,-0.096 -0.51654,-0.17446 -0.139229,-0.0375 -0.315381,-0.0489 -0.291047,-0.23922 0.02167,-0.32899 0.06155,-0.65677 0.142121,-0.97713 0.147605,-0.53436 0.354877,-1.05041 0.478133,-1.59207 0,0 0.665073,0.0185 0.665073,0.0185 z"
       inkscape:connector-curvature="0"
       inkscape:export-xdpi="96"
       inkscape:export-ydpi="96" />
    <path
       style="fill:#000000;fill-opacity:1;stroke:#000000;stroke-width:0.26499999;stroke-linejoin:round;stroke-miterlimit:4;stroke-dasharray:none;stroke-opacity:1"
       id="path1507"
       d="m 46.7512,139.04425 c 0.195495,0.67518 0.389138,1.34748 0.503653,2.04214 0.110781,0.51374 0.211529,1.02938 0.301548,1.54714 0.04031,0.27106 0.03936,0.54603 0.04131,0.81943 5.29e-4,0.10972 5.29e-4,0.21945 -2.25e-4,0.32917 -0.02852,0.27224 -0.671037,0.12606 -0.671023,-0.15137 -0.03178,-0.20839 -0.122354,-0.40281 -0.161187,-0.6153 -0.07892,-0.39534 -0.0294,-0.7822 0.04099,-1.17341 0.03439,-0.36874 0.162644,-0.71533 0.248456,-1.07284 0.06583,-0.30338 0.184404,-0.59099 0.257424,-0.89309 0.09429,-0.2068 0.15756,-0.43605 0.274193,-0.63131 0.123415,-0.13008 0.282141,-0.23951 0.441098,-0.32478 0.143113,-0.0616 0.269734,-0.15355 0.39348,-0.24685 0.02492,-0.0197 0.05057,-0.0395 0.07575,-0.0585 1.54e-4,0.001 2.65e-4,0.002 5.29e-4,0.003 0,0 0.670396,0.0452 0.670396,0.0452 v 0 c -2.64e-4,0.002 -7.93e-4,0.003 -0.0011,0.005 -0.0245,0.0238 -0.04955,0.0479 -0.07816,0.0675 -0.124711,0.0956 -0.251425,0.19618 -0.396023,0.25875 -0.159408,0.0761 -0.301839,0.18385 -0.438195,0.29026 -0.12955,0.17536 -0.169687,0.41671 -0.274732,0.60817 -0.07344,0.30212 -0.1899,0.59019 -0.25884,0.89276 -0.08401,0.35693 -0.215698,0.70131 -0.249015,1.06932 -0.07107,0.38324 -0.119684,0.76165 -0.03939,1.14898 0.04172,0.2152 0.141682,0.41249 0.163415,0.62767 2.64e-4,0.28094 -0.641816,0.37875 -0.669391,0.15006 0.0029,-0.10913 0.0039,-0.2183 0.0039,-0.32747 -7.94e-4,-0.26985 -0.0011,-0.5411 -0.04042,-0.80866 -0.08424,-0.51846 -0.184954,-1.03375 -0.294521,-1.54743 -0.115149,-0.69246 -0.306216,-1.36331 -0.508958,-2.03446 0,0 0.665073,-0.0185 0.665073,-0.0185 z"
       inkscape:connector-curvature="0"
       inkscape:export-xdpi="96"
       inkscape:export-ydpi="96" />
    <path
       style="fill:#000000;fill-opacity:1;stroke:#000000;stroke-width:0.26499999;stroke-linejoin:round;stroke-miterlimit:4;stroke-dasharray:none;stroke-opacity:1"
       id="path1509"
       d="m 50.281191,135.49653 c 0.09369,0.94081 0.142661,1.87861 0.11429,2.82362 -0.04201,0.90815 -0.07958,1.81643 -0.101344,2.7253 -0.03538,0.46251 -0.137673,0.91567 -0.196471,1.3752 -0.01767,0.16052 -0.03448,0.32141 -0.03894,0.48292 -0.0315,0.2643 -0.110736,0.52503 -0.163282,0.7878 -0.09252,0.47519 0.04529,0.32702 -0.728546,0.18828 0.0087,-0.0516 0.01733,-0.10325 0.02598,-0.15488 0,0 0.666747,0.0113 0.666747,0.0113 v 0 c -0.0082,0.0473 -0.01648,0.0946 -0.02471,0.14193 -0.785847,0.13064 -0.693515,0.27096 -0.606658,-0.19995 0.05295,-0.25829 0.129072,-0.51647 0.160288,-0.77601 0.0031,-0.16397 0.02625,-0.32695 0.04292,-0.48988 0.05911,-0.45759 0.164486,-0.90812 0.202943,-1.36841 0.02558,-0.90891 0.06523,-1.81726 0.107045,-2.72555 0.02861,-0.94459 -0.02064,-1.88214 -0.124941,-2.82165 0,0 0.664675,0 0.664675,0 z"
       inkscape:connector-curvature="0"
       inkscape:export-xdpi="96"
       inkscape:export-ydpi="96" />
    <path
       style="fill:#000000;fill-opacity:1;stroke:#000000;stroke-width:0.26499999;stroke-linejoin:round;stroke-miterlimit:4;stroke-dasharray:none;stroke-opacity:1"
       id="path1511"
       d="m 53.675552,139.00801 c -0.505518,0.33987 -1.00711,0.69046 -1.467438,1.09018 -0.307779,0.25308 -0.520149,0.58326 -0.69197,0.93759 -0.09611,0.18121 -0.111267,0.38105 -0.117755,0.58172 -0.0024,0.20643 2.59e-4,0.41288 0.0028,0.61929 0.04852,0.19914 0.188338,0.35327 0.319572,0.50407 0.273465,0.34218 0.816216,0.24676 -0.154681,0.22892 0.138189,-0.0285 0.272754,-0.0708 0.410954,-0.10027 0.129873,-0.0112 0.201289,-0.0292 0.291843,-0.12521 0.127738,-0.14799 0.298513,-0.23266 0.396243,-0.40645 0.103139,-0.21894 0.191285,-0.44057 0.250219,-0.67562 0.01632,-0.24494 0.09504,-0.46933 0.162441,-0.70278 0.07632,-0.26314 0.09928,-0.53736 0.114548,-0.80974 0.0113,-0.31189 0.0088,-0.62407 0.0087,-0.93611 2.22e-4,-0.36844 -0.0011,-0.73688 -0.0011,-1.10532 -0.0011,-0.35556 -5.29e-4,-0.71113 5.29e-4,-1.0667 0.01328,-0.36918 -0.0465,-0.74439 0.06222,-1.10226 0.03222,-0.0924 0.08047,-0.17572 0.14537,-0.24821 0.915035,-0.35956 0.588256,0.50904 0.54706,0.85975 -0.144446,0.85574 -0.217807,1.72025 -0.337896,2.57943 -0.108427,0.74943 -0.161055,1.50508 -0.189347,2.26128 0.03191,0.31795 -0.07948,0.67165 0.01535,0.98174 0.05398,0.12819 0.100092,0.21685 0.236011,0.24317 0.104534,0.0332 0.132249,0.13925 0.237376,0.18765 0.08265,0.0443 0.169611,0.0403 0.260345,0.0428 0.228301,2.7e-4 0.673867,2.7e-4 -0.349168,-2.2e-4 0,0 0.65986,0.10417 0.65986,0.10417 v 0 c -0.323945,2.7e-4 -0.64902,0.006 -0.973243,-0.002 -0.09434,-0.006 -0.182444,-0.0225 -0.264097,-0.0734 -0.08667,-0.0565 -0.125838,-0.1584 -0.235714,-0.17344 -0.132924,-0.0545 -0.188558,-0.18233 -0.239657,-0.3103 -0.08238,-0.32251 0.01304,-0.6739 -0.0087,-1.00247 0.03088,-0.7584 0.08618,-1.51618 0.194405,-2.26788 0.121782,-0.85823 0.193437,-1.72194 0.332695,-2.57772 0.02344,-0.21417 0.03155,-0.32717 0.06838,-0.53208 0.07424,-0.41304 0.07124,-0.16386 0.714592,-0.25365 -0.07774,0.0354 -0.110705,0.13009 -0.146077,0.2023 -0.117163,0.34854 -0.04848,0.7199 -0.06535,1.08162 0.0011,0.35555 0.0016,0.71111 0.0011,1.06666 2.65e-4,0.36843 3.2e-5,0.73686 0.0016,1.10528 5.29e-4,0.31329 0.0024,0.62672 -0.0071,0.9399 -0.01527,0.27712 -0.04004,0.55638 -0.115612,0.82442 -0.06475,0.23349 -0.148019,0.45573 -0.161663,0.70074 -0.05972,0.23996 -0.14659,0.46702 -0.24987,0.69114 -0.09118,0.1907 -0.253153,0.27993 -0.396907,0.42339 -0.09388,0.11025 -0.145404,0.17104 -0.295095,0.16794 -0.14021,0.0271 -0.278423,0.0591 -0.413387,0.10593 -0.576091,0.009 -0.835351,0.12648 -1.174277,-0.2789 -0.137697,-0.16467 -0.280686,-0.33345 -0.321082,-0.55068 -0.0013,-0.2073 -0.0048,-0.41461 -0.0021,-0.6219 0.0058,-0.2095 0.02082,-0.42024 0.119862,-0.60981 0.175022,-0.36125 0.384307,-0.70477 0.69797,-0.9639 0.459627,-0.40494 0.965891,-0.75186 1.46676,-1.10354 0,0 0.660948,0.0698 0.660948,0.0698 z"
       inkscape:connector-curvature="0"
       inkscape:export-xdpi="96"
       inkscape:export-ydpi="96" />
    <g
       id="g1556"
       transform="matrix(0.698,0,0,0.698,23.039405,25.057298)"
       inkscape:export-xdpi="96"
       inkscape:export-ydpi="96">
      <rect
         y="102.41109"
         x="73.758957"
         height="23.740406"
         width="22.861132"
         id="rect1441"
         style="fill:none;fill-opacity:1;stroke:#000000;stroke-width:0.40000001;stroke-linejoin:round;stroke-miterlimit:4;stroke-dasharray:none;stroke-opacity:1"
         inkscape:export-xdpi="96"
         inkscape:export-ydpi="96" />
      <rect
         y="127.4445"
         x="73.758957"
         height="23.740406"
         width="22.861134"
         id="rect1443"
         style="fill:none;fill-opacity:1;stroke:#000000;stroke-width:0.40000001;stroke-linejoin:round;stroke-miterlimit:4;stroke-dasharray:none;stroke-opacity:1"
         inkscape:export-xdpi="96"
         inkscape:export-ydpi="96" />
      <rect
         y="152.4223"
         x="73.758957"
         height="23.740406"
         width="22.861134"
         id="rect1445"
         style="fill:none;fill-opacity:1;stroke:#000000;stroke-width:0.40000001;stroke-linejoin:round;stroke-miterlimit:4;stroke-dasharray:none;stroke-opacity:1"
         inkscape:export-xdpi="96"
         inkscape:export-ydpi="96" />
      <rect
         y="177.56549"
         x="73.758957"
         height="23.740406"
         width="22.861134"
         id="rect1445-3"
         style="fill:none;fill-opacity:1;stroke:#000000;stroke-width:0.40000001;stroke-linejoin:round;stroke-miterlimit:4;stroke-dasharray:none;stroke-opacity:1"
         inkscape:export-xdpi="96"
         inkscape:export-ydpi="96" />
      <rect
         y="202.54326"
         x="73.758957"
         height="23.740406"
         width="22.861134"
         id="rect1445-3-6"
         style="fill:none;fill-opacity:1;stroke:#000000;stroke-width:0.40000001;stroke-linejoin:round;stroke-miterlimit:4;stroke-dasharray:none;stroke-opacity:1"
         inkscape:export-xdpi="96"
         inkscape:export-ydpi="96" />
      <rect
         y="227.89824"
         x="73.758957"
         height="23.740406"
         width="22.861134"
         id="rect1445-3-6-7"
         style="fill:none;fill-opacity:1;stroke:#000000;stroke-width:0.40000001;stroke-linejoin:round;stroke-miterlimit:4;stroke-dasharray:none;stroke-opacity:1"
         inkscape:export-xdpi="96"
         inkscape:export-ydpi="96" />
    </g>
    <path
       style="fill:#000000;fill-opacity:1;stroke:#000000;stroke-width:0.26499999;stroke-linejoin:round;stroke-miterlimit:4;stroke-dasharray:none;stroke-opacity:1"
       id="path1558"
       d="m 75.714499,105.66708 c 0.487974,-0.32191 0.864476,-0.77933 1.218605,-1.2375 0.344432,-0.4499 0.661257,-0.92444 0.902285,-1.43811 0.107936,-0.20554 0.22212,-0.40705 0.307493,-0.62335 0.0208,-0.0657 0.02656,-0.13428 0.02692,-0.20274 -0.01278,-0.14796 -0.170347,-0.0376 0.447093,0.0491 -0.01738,0.56011 0.0065,1.11876 0.0361,1.67797 0.03646,1.04732 0.124646,2.09155 0.188418,3.13735 0.04578,0.57488 0.130247,1.1455 0.198107,1.71788 0.01212,0.10945 0.02466,0.21892 0.03227,0.3288 -0.277873,0.0705 -0.451432,0.0641 -0.451197,-0.1637 0,0 0.448831,-1.7e-4 0.448831,-1.7e-4 v 0 c 0.0021,0.23798 -0.09025,0.17625 -0.449445,0.16602 -0.0052,-0.1089 -0.01664,-0.21739 -0.02755,-0.32584 -0.06343,-0.57331 -0.141399,-1.14514 -0.186343,-1.72039 -0.06144,-1.04604 -0.149673,-2.09031 -0.189992,-3.13754 -0.03245,-0.56014 -0.05913,-1.11963 -0.04897,-1.68093 0.402955,-0.0742 0.444884,-0.23186 0.454406,-0.049 1.72e-4,0.0743 -0.0094,0.14845 -0.02859,0.22024 -0.08718,0.21732 -0.200853,0.42069 -0.313158,0.62577 -0.241861,0.51709 -0.561422,0.99432 -0.907111,1.4475 -0.353279,0.46112 -0.728855,0.92185 -1.212487,1.25257 0,0 -0.445683,-0.0439 -0.445683,-0.0439 z"
       inkscape:connector-curvature="0"
       inkscape:export-xdpi="96"
       inkscape:export-ydpi="96" />
    <path
       style="fill:#000000;fill-opacity:1;stroke:#000000;stroke-width:0.26499999;stroke-linejoin:round;stroke-miterlimit:4;stroke-dasharray:none;stroke-opacity:1"
       id="path1560"
       d="m 83.89576,102.47959 c -0.386681,-0.006 -0.77365,0.042 -1.14586,0.14598 -0.248373,0.0489 -0.459598,0.15686 -0.659525,0.30804 -0.25695,0.21166 -0.44137,0.49708 -0.617572,0.77598 -0.23088,0.38426 -0.391369,0.80512 -0.540707,1.22623 -0.136758,0.41484 -0.17747,0.84875 -0.199594,1.28219 -0.02257,0.37764 0.04355,0.75501 0.185886,1.10448 0.09587,0.24993 0.248139,0.46872 0.415366,0.67519 0.123021,0.16403 0.290825,0.27882 0.454242,0.39848 0.203161,0.13112 0.404096,0.24435 0.640448,0.29957 0.04147,-8e-4 0.165814,5.3e-4 0.124418,-0.002 -0.442688,-0.0277 -0.374738,0.01 -0.172273,-0.0251 0.145079,-0.0249 0.281776,-0.0698 0.417264,-0.12551 0.227213,-0.14145 0.448508,-0.29129 0.678153,-0.42938 0.232246,-0.16268 0.419791,-0.37382 0.588561,-0.59916 0.127515,-0.18014 0.237267,-0.3756 0.334885,-0.57373 0.06406,-0.19616 0.136975,-0.38856 0.189106,-0.58856 0.05419,-0.19655 0.03588,-0.40323 0.07882,-0.60065 0.04318,-0.15315 0.116459,-0.30589 0.09891,-0.46734 -0.06133,-0.16804 -0.05661,-0.35209 -0.116446,-0.51903 -0.06631,-0.14657 -0.146918,-0.28504 -0.202457,-0.43621 -0.07958,-0.20093 -0.148293,-0.39703 -0.286975,-0.56529 -0.05742,-0.11087 -0.116739,-0.21524 -0.196606,-0.3117 -0.08404,-0.10705 -0.19271,-0.19244 -0.266383,-0.30686 -0.06458,-0.10112 -0.149579,-0.17894 -0.209743,-0.28523 -0.0915,-0.063 -0.200327,-0.0792 -0.30117,-0.12873 -0.145402,-0.0638 -0.300527,-0.084 -0.457353,-0.094 0,0 0.444169,-0.0669 0.444169,-0.0669 v 0 c 0.158718,0.014 0.314873,0.0412 0.460208,0.11013 0.105127,0.0475 0.229608,0.06 0.304202,0.1559 0.0605,0.10267 0.149921,0.17861 0.208725,0.28185 0.07926,0.10874 0.183824,0.19624 0.26593,0.3032 0.07772,0.0978 0.134503,0.2046 0.196837,0.31211 0.134495,0.17494 0.204472,0.37636 0.286644,0.57932 0.05828,0.15038 0.141105,0.28866 0.203023,0.43772 0.05524,0.17189 0.0595,0.35677 0.116937,0.5292 0.01561,0.16703 -0.04874,0.32447 -0.09949,0.4818 -0.04614,0.19709 -0.0241,0.40536 -0.07931,0.60213 -0.05288,0.20286 -0.126023,0.39774 -0.189047,0.59733 -0.09577,0.20178 -0.211109,0.3982 -0.337034,0.58211 -0.170106,0.23018 -0.357847,0.44546 -0.589899,0.61643 -0.229982,0.13991 -0.456909,0.28289 -0.67877,0.4354 -0.395867,0.18 -0.825119,0.20012 -1.258084,0.16001 -0.235238,-0.0638 -0.439803,-0.18258 -0.642379,-0.31679 -0.165267,-0.12219 -0.333317,-0.24212 -0.456001,-0.41016 -0.16646,-0.21149 -0.317839,-0.43496 -0.413652,-0.68849 -0.139288,-0.35712 -0.209122,-0.73965 -0.185071,-1.12372 0.02297,-0.43771 0.06404,-0.87566 0.200837,-1.295 0.149836,-0.424 0.310446,-0.84775 0.539993,-1.23607 0.17643,-0.28304 0.361694,-0.5724 0.616204,-0.79186 0.199679,-0.15782 0.408901,-0.27735 0.662586,-0.3248 0.371845,-0.10875 0.759306,-0.16286 1.147186,-0.15836 0,0 0.441854,0.07 0.441854,0.07 z"
       inkscape:connector-curvature="0"
       inkscape:export-xdpi="96"
       inkscape:export-ydpi="96" />
    <path
       style="fill:#000000;fill-opacity:1;stroke:#000000;stroke-width:0.26499999;stroke-linejoin:round;stroke-miterlimit:4;stroke-dasharray:none;stroke-opacity:1"
       id="path1562"
       d="m 78.108304,121.601 c 0.275108,-0.40727 0.51358,-0.83789 0.731782,-1.27786 0.105275,-0.21316 0.191717,-0.4369 0.22652,-0.67275 0.006,-0.0548 0.01204,-0.11023 0.0072,-0.16534 -2.64e-4,-0.007 -0.0011,-5.3e-4 -0.0016,-8e-4 0.149574,0.0224 0.309036,0.009 0.44872,0.0672 0.01138,0.005 -0.0036,0.38672 -0.0043,0.54361 -0.0038,0.97951 -0.0044,1.95902 -0.0048,2.93853 7.5e-5,0.96227 7.94e-4,1.92453 0.0053,2.88678 0.0016,0.21691 0.0019,0.43383 0.0049,0.65072 -2.33e-4,0.005 2.3e-4,0.01 2.65e-4,0.0148 0,0 -0.452142,-1e-5 -0.452142,-1e-5 v 0 c 1.17e-4,-0.005 5.3e-4,-0.01 2.65e-4,-0.0148 0.003,-0.21689 0.0033,-0.43381 0.0049,-0.65071 0.0043,-0.96226 0.0051,-1.92452 0.0047,-2.88678 -7.93e-4,-0.97951 -0.0021,-1.95903 -0.0075,-2.93853 -7.94e-4,-0.15307 -0.0176,-0.53779 -0.0016,-0.5449 0.140266,-0.0621 0.301961,-0.0543 0.45294,-0.0814 5.29e-4,0.004 0.0011,0.008 0.0016,0.0117 0.0031,0.059 -0.0021,0.11804 -0.0095,0.17662 -0.03608,0.24067 -0.123042,0.46937 -0.231722,0.68658 -0.218966,0.44167 -0.461137,0.87183 -0.730165,1.2851 0,0 -0.446133,-0.0277 -0.446133,-0.0277 z"
       inkscape:connector-curvature="0"
       inkscape:export-xdpi="96"
       inkscape:export-ydpi="96" />
    <path
       style="fill:#000000;fill-opacity:1;stroke:#000000;stroke-width:0.26499999;stroke-linejoin:round;stroke-miterlimit:4;stroke-dasharray:none;stroke-opacity:1"
       id="path1564"
       d="m 81.557311,121.45249 c 0.227569,-0.42115 0.464487,-0.83562 0.68235,-1.26196 0.09372,-0.18205 0.187812,-0.36393 0.283671,-0.54487 0.02863,-0.0404 0.01934,-0.0857 0.01894,-0.13333 -7.94e-4,-0.0563 -0.0021,-0.11259 -0.0039,-0.16887 0.150032,0.0323 0.312558,0.0289 0.450093,0.097 0.03751,0.0186 -5.29e-4,0.0837 -5.29e-4,0.12555 -2.51e-4,0.0536 -5.29e-4,0.10711 -7.94e-4,0.16066 -0.0011,0.27214 -0.0021,0.54428 -0.003,0.81643 -0.01061,0.92441 -0.0057,1.84745 0.0402,2.7708 0.06585,0.86593 0.05062,1.73672 0.118959,2.60209 0.03247,0.30304 0.06557,0.60743 0.131363,0.90546 0.0021,0.0162 0.0088,0.0318 0.01654,0.0463 0,0 -0.451303,0.028 -0.451303,0.028 v 0 c -0.0056,-0.0216 -0.01135,-0.0431 -0.01566,-0.065 -0.05943,-0.30086 -0.09154,-0.60653 -0.121796,-0.91142 -0.06251,-0.86613 -0.04823,-1.73687 -0.113292,-2.60325 -0.04586,-0.92405 -0.05181,-1.84783 -0.04586,-2.77296 -0.0011,-0.27215 -0.0019,-0.5443 -0.003,-0.81645 -2.64e-4,-0.087 -7.94e-4,-0.2863 -7.94e-4,-0.28634 0.137713,-0.0684 0.300485,-0.0653 0.450726,-0.098 0.0011,0.0565 0.0019,0.11302 0.0026,0.16954 7.94e-4,0.0533 0.01368,0.1107 -0.01902,0.1562 -0.09956,0.17961 -0.194794,0.36157 -0.289909,0.54354 -0.219064,0.42599 -0.456972,0.84028 -0.67991,1.26412 0,0 -0.446723,-0.0232 -0.446723,-0.0232 z"
       inkscape:connector-curvature="0"
       inkscape:export-xdpi="96"
       inkscape:export-ydpi="96" />
    <path
       style="fill:#000000;fill-opacity:1;stroke:#000000;stroke-width:0.26499999;stroke-linejoin:round;stroke-miterlimit:4;stroke-dasharray:none;stroke-opacity:1"
       id="path1566"
       d="m 77.656041,139.38995 c 0.375565,-0.52282 0.68498,-1.08713 0.991145,-1.65194 0.150995,-0.2713 0.302487,-0.54275 0.405863,-0.83635 0.0076,-0.0264 0.01601,-0.0525 0.02331,-0.079 0.14878,0.0155 0.305554,-0.004 0.446338,0.0467 0.0353,0.0127 -0.0026,0.075 -0.0033,0.11249 -0.0011,0.0603 -0.0016,0.1207 -0.0021,0.18105 -0.0027,0.32776 -0.0027,0.65557 -0.0036,0.98334 -0.02283,1.15722 0.01733,2.3128 0.06675,3.46869 0.05597,0.82976 0.134027,1.65783 0.207539,2.48618 0.01251,0.13974 0.02479,0.2795 0.0376,0.41921 -0.51512,-0.0487 -0.451573,0.0237 -0.451668,-0.30659 0,0 0.448083,-1.2e-4 0.448083,-1.2e-4 v 0 c 0.0016,0.32955 0.06784,0.25604 -0.448295,0.31004 -0.0085,-0.13973 -0.02005,-0.27925 -0.03018,-0.41886 -0.064,-0.82943 -0.139898,-1.65793 -0.194789,-2.48804 -0.04807,-1.15651 -0.08948,-2.31265 -0.07329,-3.47047 -0.0016,-0.32788 -0.0035,-0.65576 -0.0042,-0.98363 -2.46e-4,-0.10477 -5.29e-4,-0.2959 0.0013,-0.29664 0.142171,-0.0582 0.303461,-0.048 0.455189,-0.0719 0.0029,0.0429 -0.01037,0.0826 -0.0249,0.12304 -0.106564,0.29596 -0.259215,0.57019 -0.414549,0.84295 -0.308028,0.56463 -0.617368,1.12932 -0.986036,1.65765 0,0 -0.446132,-0.0277 -0.446132,-0.0277 z"
       inkscape:connector-curvature="0"
       inkscape:export-xdpi="96"
       inkscape:export-ydpi="96" />
    <path
       style="fill:#000000;fill-opacity:1;stroke:#000000;stroke-width:0.26499999;stroke-linejoin:round;stroke-miterlimit:4;stroke-dasharray:none;stroke-opacity:1"
       id="path1568"
       d="m 81.147154,138.95777 c -0.124769,-0.41353 -0.164115,-0.8427 -0.121639,-1.27152 0.03743,-0.34478 0.190484,-0.66229 0.355309,-0.96306 0.141446,-0.22184 0.35029,-0.32678 0.600384,-0.37402 0.54877,-0.0199 0.786879,-0.0478 1.145347,0.33673 0.203224,0.20969 0.357852,0.45374 0.487976,0.71346 0.0949,0.24251 0.141322,0.50221 0.151617,0.76168 0.02106,0.29536 -0.02928,0.57989 -0.08651,0.86743 -0.09524,0.35057 -0.26991,0.67299 -0.429152,0.99754 -0.161306,0.32313 -0.335169,0.64373 -0.543935,0.93913 -0.133057,0.19923 -0.287534,0.38124 -0.425903,0.5769 -0.09848,0.11786 -0.161898,0.25602 -0.226211,0.39409 -0.04428,0.14574 -0.136358,0.26709 -0.204417,0.40085 -0.06319,0.18726 -0.06176,0.3893 -0.06712,0.58493 -0.0029,0.0799 -7.93e-4,0.15988 -5.29e-4,0.23982 5.29e-4,0.0919 2.65e-4,0.18374 5.29e-4,0.27561 1.27e-4,0.0514 5.3e-4,0.10286 7.94e-4,0.15429 -0.445116,-0.0167 -0.501226,-2.6e-4 -0.34163,-0.27148 0.166153,-0.2066 0.41157,-0.33473 0.647147,-0.44652 0.576914,-0.30058 0.822928,-0.28359 1.492957,-0.26426 0.30631,0.0461 0.592949,0.16691 0.849627,0.33722 -0.0095,0.0371 0.301292,0.0462 0.247153,0.044 -0.565108,-0.023 -0.423773,0.0117 -0.225253,-0.0692 0.166766,-0.0774 0.259087,-0.22396 0.311512,-0.39367 0.03381,-0.12995 0.03551,-0.26482 0.03803,-0.39818 0,0 0.449146,7.9e-4 0.449146,7.9e-4 v 0 c -0.0021,0.13744 -0.004,0.27634 -0.03801,0.41043 -0.0516,0.17974 -0.14469,0.34097 -0.314113,0.43326 -0.285168,0.12396 -0.628682,0.14232 -0.91476,0.0171 -0.255937,-0.16394 -0.541486,-0.27695 -0.844378,-0.31617 0.08475,-0.006 0.169476,-0.0123 0.254249,-0.018 0.06096,-0.004 -0.122555,0.003 -0.182801,0.0132 -0.238815,0.0401 -0.460809,0.15846 -0.679781,0.25427 -0.231796,0.10369 -0.470286,0.22981 -0.641762,0.42097 -0.177282,0.26322 0.01646,0.2549 -0.559287,0.24629 5.29e-4,-0.0514 5.29e-4,-0.10283 5.29e-4,-0.15424 -7.1e-5,-0.0917 -2.65e-4,-0.18348 -0.0013,-0.27522 -0.0013,-0.0806 5.29e-4,-0.1611 0.0027,-0.24162 0.0067,-0.20203 0.006,-0.40935 0.06668,-0.60395 0.06334,-0.13572 0.163793,-0.2526 0.205087,-0.39966 0.06294,-0.1414 0.126929,-0.28292 0.226933,-0.40261 0.139478,-0.19558 0.292597,-0.37871 0.427874,-0.57687 0.21015,-0.29198 0.385035,-0.61028 0.54506,-0.93174 0.157197,-0.32128 0.330202,-0.63997 0.426966,-0.98596 0.05553,-0.2843 0.108855,-0.56473 0.08619,-0.8569 -0.0105,-0.25317 -0.05654,-0.50694 -0.151556,-0.74266 -0.128921,-0.25591 -0.285163,-0.49459 -0.486516,-0.70028 -0.129739,-0.13299 -0.252955,-0.2434 -0.440934,-0.28269 -0.0436,-0.009 -0.176749,-0.0105 -0.132614,-0.0165 0.105077,-0.0144 0.212026,-0.006 0.31804,-0.009 -0.244004,0.0361 -0.453496,0.12101 -0.597551,0.33392 -0.165103,0.29408 -0.317532,0.60633 -0.356434,0.94493 -0.04386,0.42336 -0.0048,0.84755 0.123719,1.25456 0,0 -0.447627,0.0125 -0.447627,0.0125 z"
       inkscape:connector-curvature="0"
       inkscape:export-xdpi="96"
       inkscape:export-ydpi="96" />
    <path
       style="fill:#000000;fill-opacity:1;stroke:#000000;stroke-width:0.26499999;stroke-linejoin:round;stroke-miterlimit:4;stroke-dasharray:none;stroke-opacity:1"
       id="path1570"
       d="m 78.089801,156.5946 c 0.400826,-0.50559 0.710835,-1.07063 0.999736,-1.64497 0.188566,-0.40303 0.369171,-0.8093 0.525503,-1.22598 0.02286,-0.062 0.04523,-0.12422 0.06383,-0.18764 0.150109,0.0196 0.30702,0.0101 0.450329,0.0589 0.02962,0.0101 -0.0013,0.0626 -0.0016,0.0939 -0.004,0.27979 -0.0047,0.55962 -0.006,0.83943 -0.01725,0.96754 0.04735,1.93382 0.08511,2.90024 0.02283,0.91169 0.04088,1.82167 0.130871,2.72958 0.0264,0.25128 0.05149,0.50281 0.08479,0.7533 0.01021,0.0537 0.0051,0.10894 0.0046,0.16336 -0.0016,0.17208 -0.0013,0.34417 -5.29e-4,0.51625 7.94e-4,0.1838 0.03077,0.18638 -0.450381,-0.0135 -0.0386,-0.016 7.93e-4,-0.0836 0.0011,-0.12539 0,0 0.448,0 0.448,0 v 0 c 2.65e-4,0.0418 0.0397,0.10935 0.0011,0.12538 -0.482497,0.20032 -0.451435,0.19715 -0.450199,0.0135 0.0011,-0.17209 0.0019,-0.3442 0.0011,-0.5163 -2.17e-4,-0.0526 0.0024,-0.10561 -0.0055,-0.15778 -0.02793,-0.25126 -0.05163,-0.50297 -0.07587,-0.7546 -0.08189,-0.90915 -0.09887,-1.81982 -0.121603,-2.73206 -0.03813,-0.96713 -0.105854,-1.93372 -0.09488,-2.902 -5.29e-4,-0.27995 -0.0011,-0.55989 -5.29e-4,-0.83984 6.3e-5,-0.0314 -0.02959,-0.0846 2.64e-4,-0.0941 0.144481,-0.046 0.301416,-0.0332 0.452123,-0.0498 -0.01521,0.0673 -0.0464,0.13033 -0.06787,0.19567 -0.161446,0.41714 -0.343416,0.82528 -0.533376,1.23017 -0.288719,0.57467 -0.597258,1.14106 -0.992791,1.65077 0,0 -0.447069,-0.0263 -0.447069,-0.0263 z"
       inkscape:connector-curvature="0"
       inkscape:export-xdpi="96"
       inkscape:export-ydpi="96" />
    <path
       style="fill:#000000;fill-opacity:1;stroke:#000000;stroke-width:0.26499999;stroke-linejoin:round;stroke-miterlimit:4;stroke-dasharray:none;stroke-opacity:1"
       id="path1572"
       d="m 80.954122,154.6348 c 0.295889,-0.4157 0.652891,-0.78888 1.027391,-1.13449 0.199122,-0.14341 0.494389,-0.48025 0.760687,-0.49306 0.185656,-0.009 0.371724,0.003 0.557586,0.005 0.276458,0.12024 0.412641,0.39329 0.496993,0.66685 0.101396,0.38923 0.09202,0.78582 0.05353,1.18201 -0.06456,0.37608 -0.140108,0.75309 -0.307655,1.09809 -0.107778,0.2365 -0.263311,0.44233 -0.410612,0.65398 -0.06965,0.1022 -0.110631,0.21823 -0.20246,0.30236 -0.06747,0.0496 -0.14188,0.0887 -0.218437,0.12214 -0.172709,0.0737 0.250621,0.0896 -0.457134,-0.0972 0.07358,-0.21168 0.283451,-0.33283 0.44862,-0.46968 0.200432,-0.17052 0.41665,-0.32474 0.651256,-0.44451 0.597405,-0.21536 0.770189,-0.0844 0.999553,0.38179 0.205322,0.5069 0.240726,1.05708 0.271492,1.59694 0.03215,0.5816 -0.03464,1.16289 -0.129974,1.73567 -0.06241,0.37224 -0.213339,0.7145 -0.354182,1.06081 -0.05015,0.17568 -0.145769,0.26732 -0.319717,0.30792 -0.314021,0.0377 -0.63318,0.0202 -0.948873,0.0172 -0.217471,-0.002 -0.434953,-0.003 -0.652436,-0.004 -0.155723,-0.009 -0.316314,0.022 -0.466717,-0.0235 -0.08333,-0.0402 -0.212254,-0.06 -0.251269,-0.15209 -0.01386,-0.085 -0.06421,-0.15314 -0.112094,-0.22285 -0.03141,-0.0667 -0.03981,-0.13865 -0.04838,-0.21089 0,0 0.450308,-0.005 0.450308,-0.005 v 0 c 0.008,0.0654 0.01537,0.13103 0.04818,0.18961 0.04679,0.0711 0.09257,0.14266 0.112528,0.22619 0.06052,0.0658 0.167626,0.0826 0.246308,0.11544 0.153107,0.026 0.309613,0.007 0.464407,0.0134 0.217551,8e-4 0.4351,0.002 0.652643,0.004 0.225441,0.002 0.09108,5.3e-4 -0.253024,0.001 -0.252719,5.3e-4 0.214466,-0.001 0.249042,-0.003 0.02135,-0.002 0.04257,-0.005 0.06386,-0.007 0.170334,-0.028 0.2686,-0.0855 0.317442,-0.26362 0.140007,-0.34373 0.297265,-0.68056 0.358717,-1.05086 0.09644,-0.56933 0.163705,-1.14737 0.131069,-1.72576 -0.03091,-0.53401 -0.06554,-1.07922 -0.274476,-1.57872 -0.0443,-0.0862 -0.102388,-0.21836 -0.173281,-0.29311 -0.02666,-0.0281 -0.130934,-0.0551 -0.09436,-0.0678 0.111122,-0.0388 0.235172,-0.0114 0.352369,-0.0222 0.03311,-0.003 -0.0669,-0.006 -0.09975,-0.001 -0.03245,0.005 -0.06229,0.0208 -0.09343,0.0313 -0.235878,0.11368 -0.452226,0.26503 -0.651962,0.4339 -0.157173,0.13176 -0.362217,0.2471 -0.444304,0.4417 -0.285473,0.0198 -0.61984,0.0628 -0.440868,0.0324 0.07675,-0.0275 0.149429,-0.0656 0.218559,-0.10862 0.101159,-0.0695 0.132922,-0.19109 0.20292,-0.28915 0.143724,-0.21198 0.306356,-0.41106 0.41166,-0.64764 0.172056,-0.33722 0.244022,-0.71148 0.310004,-1.08171 0.03708,-0.39027 0.04672,-0.78114 -0.05545,-1.16407 -0.08377,-0.2582 -0.215929,-0.52732 -0.494014,-0.61384 0.109839,-0.004 0.219901,-0.0208 0.32952,-0.0127 0.0446,0.003 -0.08934,0.012 -0.13135,0.0273 -0.240622,0.0879 -0.433715,0.29038 -0.630758,0.44334 -0.374899,0.3394 -0.730327,0.71065 -1.022618,1.124 0,0 -0.447069,-0.0263 -0.447069,-0.0263 z"
       inkscape:connector-curvature="0"
       inkscape:export-xdpi="96"
       inkscape:export-ydpi="96" />
    <path
       style="fill:#000000;fill-opacity:1;stroke:#000000;stroke-width:0.26499999;stroke-linejoin:round;stroke-miterlimit:4;stroke-dasharray:none;stroke-opacity:1"
       id="path1574"
       d="m 78.84357,173.02676 c 0.272794,-0.45771 0.441494,-0.96489 0.61708,-1.46511 0.05418,-0.15844 0.10618,-0.31763 0.155668,-0.4776 0.01976,-0.0639 0.03616,-0.12425 0.0415,-0.12387 0.155784,0.0111 0.308351,0.0499 0.462526,0.0748 0.01421,0.6167 -2.64e-4,1.23315 0.01892,1.84992 0.0585,1.35043 0.08812,2.70175 0.108728,4.0532 -0.0063,0.8523 -0.04429,1.7041 -0.09748,2.55465 -0.0021,0.0225 -0.01635,0.27335 -0.0231,0.2725 -0.476631,-0.0602 -0.450839,0.0745 -0.454012,-0.14831 0.01217,-0.15376 -0.01675,-0.3022 -0.04169,-0.45305 0,0 0.447162,-0.007 0.447162,-0.007 v 0 c 0.02619,0.15287 0.05522,0.30374 0.04434,0.45971 0.0047,0.22357 0.025,0.0567 -0.446445,0.11276 -0.0072,8e-4 0.0079,-0.0128 0.0087,-0.02 0.0034,-0.0284 0.0056,-0.057 0.0081,-0.0855 0.004,-0.0446 0.0076,-0.0892 0.01138,-0.13379 0.06503,-0.84877 0.106744,-1.69961 0.1142,-2.55093 -0.01886,-1.35127 -0.04917,-2.70244 -0.115155,-4.05236 -0.02233,-0.61449 -0.01077,-1.22913 -0.03353,-1.84342 0.145907,-0.0213 0.290605,-0.0539 0.437724,-0.0639 0.01315,-7.9e-4 -0.01302,0.0231 -0.01762,0.0354 -0.01016,0.0274 -0.01754,0.0557 -0.0265,0.0834 -0.05157,0.16019 -0.10508,0.31976 -0.160179,0.47878 -0.177559,0.50271 -0.348837,1.01106 -0.613347,1.47641 0,0 -0.447069,-0.0263 -0.447069,-0.0263 z"
       inkscape:connector-curvature="0"
       inkscape:export-xdpi="96"
       inkscape:export-ydpi="96" />
    <path
       style="fill:#000000;fill-opacity:1;stroke:#000000;stroke-width:0.26499999;stroke-linejoin:round;stroke-miterlimit:4;stroke-dasharray:none;stroke-opacity:1"
       id="path1576"
       d="m 82.818374,170.75007 c -0.138343,0.90797 -0.344199,1.80419 -0.531858,2.70293 -0.182933,0.67649 -0.294386,1.37129 -0.499157,2.04169 -0.0468,0.12983 -0.08389,0.26569 -0.149881,0.38783 -0.0064,0.0186 -0.02703,0.11935 -0.04971,0.18633 -0.04437,0.10996 -0.07228,0.22561 -0.09631,0.34145 -0.0041,0.0192 -0.0072,0.0385 -0.01013,0.0579 -0.346377,-0.0703 -0.498309,-0.006 -0.294881,-0.13458 0.151141,-0.0956 0.327229,-0.14616 0.495848,-0.20093 0.40977,-0.13207 0.81871,-0.26679 1.228809,-0.39788 0.402164,-0.11466 0.810043,-0.21082 1.206233,-0.34521 0.221099,-0.0543 0.423108,-0.1569 0.632942,-0.24116 0.06456,-0.0254 0.130037,-0.0484 0.195974,-0.0699 0.01849,-0.0317 0.0076,0.0836 0.0076,-0.0327 0,0 0.450813,-5.3e-4 0.450813,-5.3e-4 v 0 c 5.29e-4,0.0222 0.01791,0.096 -0.01037,0.0919 -0.06736,0.017 -0.132684,0.0411 -0.197906,0.0649 -0.212318,0.0815 -0.412441,0.19137 -0.635961,0.24281 -0.396322,0.13664 -0.804672,0.23408 -1.208471,0.3459 -0.40981,0.12966 -0.817544,0.26587 -1.226494,0.39812 -0.13294,0.0417 -0.270166,0.0823 -0.397949,0.13865 -0.06258,0.0276 -0.108321,0.0955 -0.175983,0.10555 -0.172614,0.0256 -0.348303,0.0221 -0.522454,0.0331 0.003,-0.0219 0.006,-0.0439 0.01135,-0.0654 0.02535,-0.11739 0.05271,-0.23536 0.09786,-0.34691 0.01876,-0.0539 0.04866,-0.17347 0.04809,-0.19669 0.07144,-0.11567 0.107974,-0.24982 0.155758,-0.37606 0.212291,-0.66757 0.325538,-1.36183 0.510273,-2.03717 0.187235,-0.89656 0.394017,-1.79115 0.519242,-2.69894 0,0 0.446685,0.005 0.446685,0.005 z"
       inkscape:connector-curvature="0"
       inkscape:export-xdpi="96"
       inkscape:export-ydpi="96" />
    <path
       style="fill:#000000;fill-opacity:1;stroke:#000000;stroke-width:0.26499999;stroke-linejoin:round;stroke-miterlimit:4;stroke-dasharray:none;stroke-opacity:1"
       id="path1578"
       d="m 83.475683,171.77936 c 0.180629,0.79028 0.32983,1.58667 0.485913,2.38208 0.208965,1.20609 0.341839,2.42403 0.439071,3.64375 0.06195,0.6522 0.133649,1.30354 0.220078,1.95297 0.04135,0.31522 0.105743,0.20082 -0.422056,0.13685 -0.03626,-0.0989 -0.06417,-0.20008 -0.09131,-0.30173 0,0 0.449114,-0.0117 0.449114,-0.0117 v 0 c 0.02827,0.1054 0.06191,0.20878 0.09243,0.31343 -0.508457,0.0722 -0.436448,0.18772 -0.475766,-0.13123 -0.07628,-0.65084 -0.144589,-1.30264 -0.204975,-1.95515 -0.09421,-1.21839 -0.227962,-2.43478 -0.440431,-3.63868 -0.158011,-0.79513 -0.308588,-1.59141 -0.499155,-2.37958 0,0 0.447077,-0.011 0.447077,-0.011 z"
       inkscape:connector-curvature="0"
       inkscape:export-xdpi="96"
       inkscape:export-ydpi="96" />
    <path
       style="fill:#000000;fill-opacity:1;stroke:#000000;stroke-width:0.26499999;stroke-linejoin:round;stroke-miterlimit:4;stroke-dasharray:none;stroke-opacity:1"
       id="path1580"
       d="m 78.638312,190.20464 c 0.06719,-0.61804 0.197342,-1.22645 0.296857,-1.83955 0.04482,-0.36867 0.100923,-0.7341 0.223353,-1.08563 0.08963,-0.22828 0.09399,-0.25808 0.511842,0.006 0.0439,0.0277 0.0019,0.10381 0.0027,0.15571 -0.01669,0.8409 0.06194,1.67933 0.125474,2.51688 0.08814,1.09677 0.156606,2.19735 0.284998,3.2904 0.04933,0.35839 0.111324,0.71497 0.176289,1.07083 0.02212,0.11189 0.01728,0.22723 0.01741,0.34075 6.3e-5,0.10694 -0.0011,0.21388 -0.0013,0.32082 -0.0057,0.30249 0.411414,0.24133 -0.341342,0.17274 0.0051,-0.0369 0.01008,-0.0738 0.01514,-0.11074 0,0 0.448262,0.005 0.448262,0.005 v 0 c -0.0044,0.0403 -0.0088,0.0807 -0.01323,0.12098 -0.340307,0.0451 -0.55531,0.18611 -0.559096,-0.18858 5.29e-4,-0.10689 5.29e-4,-0.21378 0.0016,-0.32066 2.4e-5,-0.11104 0.0032,-0.22339 -0.0172,-0.33301 -0.05922,-0.35718 -0.119398,-0.71434 -0.16478,-1.07359 -0.121819,-1.09419 -0.186976,-2.19508 -0.278386,-3.29206 -0.06661,-0.83839 -0.148334,-1.67732 -0.140767,-2.51929 -0.0013,-0.0514 -0.04788,-0.12782 -0.0038,-0.15436 0.65161,-0.39217 0.458033,-0.16912 0.385302,0.008 -0.128458,0.34737 -0.18505,0.71091 -0.231664,1.07725 -0.09941,0.61244 -0.231883,1.22029 -0.289698,1.83881 0,0 -0.447884,-0.006 -0.447884,-0.006 z"
       inkscape:connector-curvature="0"
       inkscape:export-xdpi="96"
       inkscape:export-ydpi="96" />
    <path
       style="fill:#000000;fill-opacity:1;stroke:#000000;stroke-width:0.26499999;stroke-linejoin:round;stroke-miterlimit:4;stroke-dasharray:none;stroke-opacity:1"
       id="path1582"
       d="m 81.93161,188.25307 c 0.04101,0.7186 0.08258,1.43649 0.163409,2.1518 0.0425,0.36501 0.0973,0.72869 0.130421,1.09473 0.01384,0.15368 0.01079,0.30825 0.01103,0.46238 -0.0043,0.34079 0.08159,0.24687 -0.433443,0.17471 0.06984,-0.1797 0.195752,-0.32923 0.29418,-0.49362 0.103367,-0.21053 0.281881,-0.33538 0.463092,-0.47158 0.180507,-0.1187 0.348318,-0.25635 0.543139,-0.35119 0.290529,-0.098 0.658291,-0.16159 0.889151,0.0744 0.20097,0.22487 0.318762,0.49737 0.406289,0.78205 0.08969,0.34742 0.09105,0.70936 0.09627,1.06584 -0.0033,0.46469 -0.04446,0.9344 -0.126902,1.39216 -0.06718,0.34709 -0.184706,0.68062 -0.292129,1.0165 -0.09677,0.32038 -0.230661,0.62568 -0.387745,0.92052 -0.103886,0.15434 -0.273113,0.17192 -0.444235,0.18228 -0.206558,0.009 -0.414004,-0.0134 -0.620149,0.002 -0.118594,0.009 0.238024,0.003 0.356547,0.0128 0.03265,0.003 -0.06516,0.008 -0.09792,0.009 -0.45548,0.006 -0.39207,0.007 -0.653222,-0.004 -0.192672,-0.0201 -0.390252,0.003 -0.578643,-0.044 -0.171138,-0.0512 -0.341786,-0.0916 -0.4748,-0.21661 -0.09271,-0.10409 -0.163606,-0.22078 -0.210847,-0.35148 -0.03527,-0.1424 -0.01452,-0.0697 -0.0632,-0.21767 0,0 0.447903,-0.0142 0.447903,-0.0142 v 0 c 0.04879,0.14942 0.02777,0.0774 0.06423,0.21569 0.04805,0.12247 0.117523,0.23453 0.20973,0.32915 0.137422,0.10838 0.305347,0.14861 0.471755,0.19403 0.190351,0.0321 0.38522,0.0204 0.577439,0.0366 0.03361,10e-4 0.134448,0.002 0.10083,0.003 -0.111638,0.002 -0.223326,0.002 -0.334988,0.002 -0.03227,-1e-4 0.06453,-0.001 0.09678,-0.003 0.177448,-0.007 0.355989,-9e-5 0.532304,-0.0212 0.01566,-0.002 -0.583541,0.002 -0.267872,-1e-5 0.15847,-0.006 0.330946,-0.003 0.440008,-0.13641 0.160337,-0.29072 0.295553,-0.59319 0.39071,-0.91198 0.106315,-0.33433 0.221964,-0.66635 0.292317,-1.01079 0.08421,-0.45444 0.125595,-0.92163 0.126971,-1.38339 -0.0064,-0.35231 -0.0077,-0.71008 -0.09776,-1.05318 -0.08615,-0.27781 -0.204727,-0.54449 -0.407128,-0.75882 -0.02352,-0.0201 -0.0444,-0.0438 -0.07055,-0.0604 -0.02336,-0.0148 -0.103608,-0.0286 -0.07626,-0.0326 0.741672,-0.10856 0.315558,0.005 0.151746,0.033 -0.1974,0.0876 -0.362852,0.22433 -0.543412,0.34132 -0.174717,0.13622 -0.361283,0.24562 -0.461435,0.45463 -0.09633,0.16225 -0.218478,0.30979 -0.292066,0.48403 -0.550942,0.053 -0.464847,0.16431 -0.466474,-0.18929 5.29e-4,-0.15284 0.0019,-0.30597 -0.01029,-0.45846 -0.02975,-0.36566 -0.08124,-0.72915 -0.121632,-1.0937 -0.07872,-0.71729 -0.118837,-1.43696 -0.169304,-2.15669 0,0 0.446135,0 0.446135,0 z"
       inkscape:connector-curvature="0"
       inkscape:export-xdpi="96"
       inkscape:export-ydpi="96" />
    <path
       style="fill:#000000;fill-opacity:1;stroke:#000000;stroke-width:0.26499999;stroke-linejoin:round;stroke-miterlimit:4;stroke-dasharray:none;stroke-opacity:1"
       id="path1584"
       d="m 81.31123,187.55555 c 0.350295,-0.13863 0.715958,-0.2367 1.067435,-0.37078 0.235051,-0.0815 0.457391,-0.19546 0.693902,-0.2722 0.154858,-0.0465 0.315777,-0.0695 0.476806,-0.0801 0.248721,-0.009 0.49771,-0.003 0.746548,-0.001 0.01812,1.8e-4 0.03625,2.7e-4 0.05437,5.3e-4 0,0 -0.44671,0.0703 -0.44671,0.0703 v 0 c -0.01773,-2.1e-4 -0.03543,-5.3e-4 -0.05315,-5.3e-4 -0.389787,-0.004 0.591333,-0.003 0.144015,-5.3e-4 -0.160758,0.005 -0.321823,0.0268 -0.477213,0.0687 -0.238807,0.0701 -0.458676,0.18907 -0.694399,0.26869 -0.348504,0.14208 -0.721159,0.22464 -1.067541,0.37518 0,0 -0.444066,-0.0577 -0.444066,-0.0577 z"
       inkscape:connector-curvature="0"
       inkscape:export-xdpi="96"
       inkscape:export-ydpi="96" />
    <path
       style="fill:#000000;fill-opacity:1;stroke:#000000;stroke-width:0.26499999;stroke-linejoin:round;stroke-miterlimit:4;stroke-dasharray:none;stroke-opacity:1"
       id="path1586"
       d="m 46.638069,80.646994 c -0.0722,0.517475 -0.09871,1.039593 -0.118266,1.561232 0.0052,0.605652 -0.0609,1.207418 -0.10895,1.810242 -0.04112,0.531278 -0.05078,1.064117 -0.05698,1.596713 -0.0013,0.571037 -0.07435,1.138891 -0.111877,1.708303 -0.03424,0.559933 -0.03775,1.121066 -0.04101,1.68184 -0.0021,0.617821 -0.0011,1.235647 -7.94e-4,1.85347 0.03831,0.58489 0.09168,1.16849 0.124796,1.753788 0.0213,0.339574 0.02772,0.679736 0.02992,1.019881 0.05217,0.392528 0.09524,0.785485 0.122224,1.180582 0.01998,0.335195 0.02492,0.671057 0.02914,1.006753 0.0084,0.166404 -0.01646,0.335401 0.01818,0.498975 0.08568,0.261157 0.09787,0.538339 0.113932,0.810553 0.03232,0.247936 0.01098,0.480944 -0.04919,0.721146 -0.0378,0.130643 -0.06546,0.263324 -0.07736,0.398798 -0.0091,0.159515 -0.0069,0.31945 -0.0069,0.479161 5.3e-4,0.184311 5.3e-4,0.368625 0.0011,0.552937 1.45e-4,0.196326 -9.8e-5,0.392652 -2.65e-4,0.588978 7.2e-5,0.159414 2.04e-4,0.318824 0.0013,0.478244 1.11e-4,0.0242 2.65e-4,0.0485 7.94e-4,0.0727 -7.94e-4,0.0402 -2.65e-4,0.0804 -2.07e-4,0.12055 2.2e-5,0.009 1.35e-4,0.0178 2.17e-4,0.0266 3e-6,1.2e-4 6e-6,2.3e-4 8e-6,2.7e-4 -0.162277,-0.0137 -0.327654,-0.007 -0.486828,-0.0411 -0.01339,-0.003 -0.275984,-0.39584 -0.291951,-0.4224 -0.232712,-0.36411 -0.422043,-0.752854 -0.618549,-1.137289 -0.250023,-0.440877 -0.4489,-0.907928 -0.636738,-1.37796 -0.14737,-0.289476 -0.233349,-0.616302 -0.428003,-0.879385 -0.07715,-0.108334 -0.154559,-0.216493 -0.232371,-0.324356 -0.117811,-0.163602 -0.0498,-0.02695 0.48118,-0.07797 0,0 -0.444942,0.06996 -0.444942,0.06996 v 0 c 0.399206,-0.05022 0.319794,-0.155565 0.414261,-0.01987 0.07601,0.108466 0.1525,0.216593 0.229272,0.324519 0.186639,0.272079 0.280791,0.59531 0.424648,0.890228 0.187037,0.46891 0.386321,0.934161 0.635799,1.373819 0.19731,0.383316 0.387556,0.770949 0.621374,1.133704 0.137792,0.21922 0.03155,0.0614 0.175858,0.25059 0.05574,0.0731 0.120729,0.16952 0.119435,0.17003 -0.130455,0.0509 -0.276463,0.045 -0.414694,0.0675 2e-6,-1.2e-4 5e-6,-2.3e-4 8e-6,-2.7e-4 8.2e-5,-0.009 1.93e-4,-0.0177 2.17e-4,-0.0266 1.77e-4,-0.0402 5.29e-4,-0.0804 -2.07e-4,-0.12056 2.65e-4,-0.0242 5.29e-4,-0.0485 7.94e-4,-0.0727 0.0011,-0.15942 0.0011,-0.31883 0.0013,-0.478238 -2.46e-4,-0.196313 -5.29e-4,-0.392626 -5.29e-4,-0.588938 1.82e-4,-0.184314 -5.29e-4,-0.368628 -5.29e-4,-0.552943 -2.65e-4,-0.160969 -0.0029,-0.322209 0.0056,-0.482994 0.01122,-0.138033 0.03971,-0.273275 0.07898,-0.406048 0.05942,-0.235738 0.08319,-0.463497 0.05148,-0.70744 -0.01633,-0.270619 -0.03159,-0.544579 -0.116705,-0.804188 -0.03283,-0.167137 -0.01214,-0.337928 -0.01752,-0.507648 -0.0011,-0.334822 -0.006,-0.669782 -0.02588,-1.004091 -0.02667,-0.396161 -0.07136,-0.789877 -0.124304,-1.183323 -0.0019,-0.339378 -0.0076,-0.678767 -0.02609,-1.017719 -0.03127,-0.586201 -0.08527,-1.170491 -0.123229,-1.756196 -2.65e-4,-0.617911 -0.0011,-1.235826 7.93e-4,-1.853734 0.0028,-0.561653 0.0041,-1.12376 0.03999,-1.684512 0.03738,-0.568603 0.11167,-1.135587 0.111593,-1.705862 0.005,-0.533656 0.01627,-1.067493 0.05756,-1.599784 0.04857,-0.60216 0.115969,-1.203246 0.108588,-1.808364 0.01966,-0.523105 0.04807,-1.046205 0.113254,-1.565926 0,0 0.447884,0.0063 0.447884,0.0063 z"
       inkscape:connector-curvature="0"
       inkscape:export-xdpi="96"
       inkscape:export-ydpi="96" />
    <path
       style="fill:#000000;fill-opacity:1;stroke:#000000;stroke-width:0.26499999;stroke-linejoin:round;stroke-miterlimit:4;stroke-dasharray:none;stroke-opacity:1"
       id="path1588"
       d="m 46.395166,99.983117 c 0.138417,-0.610005 0.344696,-1.201238 0.564885,-1.785715 0.186328,-0.506175 0.387289,-1.007841 0.61934,-1.494931 0.126936,-0.316941 0.299222,-0.604184 0.49127,-0.884182 0.144933,-0.207772 0.328464,-0.382328 0.487312,-0.579456 0.107511,-0.109034 0.165658,-0.248308 0.241917,-0.378081 0.03609,-0.06018 0.07397,-0.119251 0.113067,-0.177504 0.0032,-0.0039 0.0055,-0.0085 0.0081,-0.01267 0.138192,0.02754 0.276381,0.05508 0.41457,0.08261 0,0 -0.449299,-0.0263 -0.449299,-0.0263 v 0 c 0.228107,-0.01177 0.59655,-0.146931 0.477573,-0.01593 -0.04054,0.05645 -0.0785,0.114696 -0.114938,0.173881 -0.0787,0.130847 -0.133543,0.27427 -0.243282,0.384373 -0.158549,0.197052 -0.340259,0.371505 -0.488749,0.575861 -0.190336,0.279019 -0.368628,0.560361 -0.492815,0.877289 -0.23462,0.485201 -0.437208,0.985761 -0.624658,1.490867 -0.219779,0.582504 -0.426781,1.17226 -0.55672,1.782325 0,0 -0.447627,-0.01246 -0.447627,-0.01246 z"
       inkscape:connector-curvature="0"
       inkscape:export-xdpi="96"
       inkscape:export-ydpi="96" />
    <path
       style="fill:#000000;fill-opacity:1;stroke:#000000;stroke-width:0.26499999;stroke-linejoin:round;stroke-miterlimit:4;stroke-dasharray:none;stroke-opacity:1"
       id="path1590"
       d="m 80.894943,79.302284 c 0.07153,0.559861 0.09601,1.123579 0.112458,1.687245 0.03648,0.809985 -0.02697,1.61871 -0.07342,2.426822 -0.04252,0.498483 -0.0258,1.000773 -0.07403,1.498438 -0.06832,0.512699 -0.09974,1.028793 -0.11966,1.545291 -0.01548,0.488556 -0.01643,0.977416 -0.01683,1.466168 -0.0043,0.483314 -0.01095,0.964369 0.04396,1.444968 0.03094,0.414047 0.09931,0.821341 0.167055,1.230337 0.04006,0.257368 0.07231,0.515694 0.09048,0.775523 -0.01175,0.111175 0.03834,0.191299 0.07324,0.292679 0.05537,0.19776 0.04048,0.402916 0.119245,0.593886 0.06456,0.153102 0.09004,0.317471 0.10401,0.48187 0.01397,0.137994 0.09042,0.252016 0.11911,0.390007 0.02974,0.187423 0.02674,0.372509 0.08304,0.55482 0.03697,0.09997 0.08702,0.187712 0.09946,0.29395 0.0074,0.117096 0.0098,0.23446 0.01066,0.351769 -2.46e-4,0.06871 -7.93e-4,0.137421 -0.0011,0.206134 -6.4e-5,0.04575 7.9e-5,0.09149 2.65e-4,0.137234 -0.219062,0.359137 -0.71378,-0.151797 -0.885587,-0.303604 -0.319704,-0.343099 -0.630799,-0.693963 -0.95186,-1.035905 -0.328007,-0.390726 -0.705705,-0.733814 -1.038246,-1.120423 -0.1387,-0.163885 -0.276712,-0.328377 -0.412115,-0.495004 -0.01712,-0.01942 -0.02834,-0.04203 -0.04933,-0.05583 0.01651,-0.07117 -0.0016,-0.04089 0.05695,-0.08933 0,0 0.448035,0.04775 0.448035,0.04775 v 0 c -0.01402,0.0038 -0.02803,0.0076 -0.04204,0.01143 -0.0043,-0.0019 -0.0086,-0.0037 -0.01289,-0.0055 0.01572,0.02035 0.03244,0.03766 0.0491,0.06096 0.132638,0.166981 0.268751,0.331187 0.406554,0.493922 0.3313,0.386342 0.708252,0.729072 1.036134,1.118624 0.320392,0.341855 0.630214,0.693465 0.954641,1.031364 0.0779,0.068 0.15712,0.138247 0.237051,0.204068 0.02882,0.02373 0.121967,0.05478 0.08771,0.06962 -0.10846,0.04698 -0.236265,0.01963 -0.351763,0.04476 -0.0091,0.0019 0.01971,0.0438 0.01566,0.02304 5.29e-4,-0.04577 7.94e-4,-0.09154 7.94e-4,-0.137305 1.35e-4,-0.06866 4e-5,-0.137325 7.94e-4,-0.205981 5.29e-4,-0.115411 -7.94e-4,-0.230976 -0.0098,-0.346083 -0.01426,-0.101836 -0.06838,-0.188362 -0.09806,-0.286541 -0.05404,-0.183862 -0.05338,-0.370073 -0.0833,-0.558393 -0.03094,-0.137496 -0.113004,-0.254177 -0.11937,-0.395674 -0.01429,-0.16025 -0.03955,-0.319987 -0.103761,-0.46886 -0.07314,-0.193029 -0.0626,-0.397796 -0.1195,-0.595344 -0.03831,-0.102918 -0.08577,-0.191646 -0.0735,-0.305207 -0.01558,-0.258371 -0.04675,-0.515337 -0.08619,-0.771137 -0.06783,-0.409744 -0.135163,-0.817893 -0.166272,-1.232651 -0.05368,-0.482357 -0.04731,-0.965086 -0.04342,-1.450022 7.94e-4,-0.489305 7.94e-4,-0.978734 0.01767,-1.467816 0.01992,-0.517284 0.0513,-1.034227 0.118126,-1.547879 0.0481,-0.49712 0.03381,-0.998992 0.07928,-1.496745 0.0493,-0.806683 0.111937,-1.614204 0.07227,-2.422882 -0.01781,-0.562314 -0.04208,-1.125088 -0.119059,-1.683023 0,0 0.447288,-0.0056 0.447288,-0.0056 z"
       inkscape:connector-curvature="0"
       inkscape:export-xdpi="96"
       inkscape:export-ydpi="96" />
    <path
       style="fill:#000000;fill-opacity:1;stroke:#000000;stroke-width:0.26499999;stroke-linejoin:round;stroke-miterlimit:4;stroke-dasharray:none;stroke-opacity:1"
       id="path1592"
       d="m 81.388515,93.933146 c 0.306827,-0.642815 0.604062,-1.290251 0.927211,-1.925089 0.236982,-0.464278 0.442939,-0.942997 0.69283,-1.400638 0.108498,-0.21294 0.206299,-0.429509 0.337021,-0.63 0.02998,-0.04547 0.06221,-0.08935 0.0959,-0.132117 0.003,-0.0024 0.0027,-0.0064 0.004,-0.0096 0.143881,0.02893 0.287761,0.05786 0.431642,0.08679 0,0 -0.450057,-0.01429 -0.450057,-0.01429 v 0 c 0.155131,-0.0079 0.569077,0.0872 0.465138,-0.02824 -0.0384,0.03598 -0.06622,0.08197 -0.09767,0.123783 -0.133837,0.197967 -0.233151,0.413128 -0.340733,0.626076 -0.253148,0.456419 -0.461055,0.934619 -0.698883,1.398981 -0.32398,0.631637 -0.620014,1.276914 -0.919647,1.920362 0,0 -0.446741,-0.01603 -0.446741,-0.01603 z"
       inkscape:connector-curvature="0"
       inkscape:export-xdpi="96"
       inkscape:export-ydpi="96" />
    <rect
       inkscape:export-ydpi="96"
       inkscape:export-xdpi="96"
       style="fill:none;fill-opacity:1;stroke:#000000;stroke-width:0.27919999;stroke-linejoin:round;stroke-miterlimit:4;stroke-dasharray:none;stroke-opacity:1"
       id="rect1441-3"
       width="15.957069"
       height="16.570803"
       x="113.64519"
       y="99.417732" />
    <rect
       inkscape:export-ydpi="96"
       inkscape:export-xdpi="96"
       style="fill:none;fill-opacity:1;stroke:#000000;stroke-width:0.27919999;stroke-linejoin:round;stroke-miterlimit:4;stroke-dasharray:none;stroke-opacity:1"
       id="rect1443-5"
       width="15.957071"
       height="16.570803"
       x="113.64519"
       y="116.89106" />
    <rect
       inkscape:export-ydpi="96"
       inkscape:export-xdpi="96"
       style="fill:none;fill-opacity:1;stroke:#000000;stroke-width:0.27919999;stroke-linejoin:round;stroke-miterlimit:4;stroke-dasharray:none;stroke-opacity:1"
       id="rect1445-6"
       width="15.957071"
       height="16.570803"
       x="113.64519"
       y="134.32556" />
    <rect
       inkscape:export-ydpi="96"
       inkscape:export-xdpi="96"
       style="fill:none;fill-opacity:1;stroke:#000000;stroke-width:0.27919999;stroke-linejoin:round;stroke-miterlimit:4;stroke-dasharray:none;stroke-opacity:1"
       id="rect1445-3-2"
       width="15.957071"
       height="16.570803"
       x="113.64519"
       y="151.8755" />
    <text
       xml:space="preserve"
       style="font-style:normal;font-weight:normal;font-size:10.58333302px;line-height:1.25;font-family:sans-serif;letter-spacing:0px;word-spacing:0px;fill:#000000;fill-opacity:1;stroke:none;stroke-width:0.26458332"
       x="117.88945"
       y="110.81909"
       id="text1677"
       inkscape:export-xdpi="96"
       inkscape:export-ydpi="96"><tspan
         sodipodi:role="line"
         id="tspan1675"
         x="117.88945"
         y="110.81909"
         style="stroke-width:0.26458332">T</tspan></text>
    <text
       xml:space="preserve"
       style="font-style:normal;font-weight:normal;font-size:10.58333302px;line-height:1.25;font-family:sans-serif;letter-spacing:0px;word-spacing:0px;fill:#000000;fill-opacity:1;stroke:none;stroke-width:0.26458332"
       x="118.19096"
       y="129.51256"
       id="text1681"
       inkscape:export-xdpi="96"
       inkscape:export-ydpi="96"><tspan
         sodipodi:role="line"
         id="tspan1679"
         x="118.19096"
         y="129.51256"
         style="stroke-width:0.26458332">T</tspan></text>
    <text
       xml:space="preserve"
       style="font-style:normal;font-weight:normal;font-size:10.58333302px;line-height:1.25;font-family:sans-serif;letter-spacing:0px;word-spacing:0px;fill:#000000;fill-opacity:1;stroke:none;stroke-width:0.26458332"
       x="118.04019"
       y="146.39697"
       id="text1685"
       inkscape:export-xdpi="96"
       inkscape:export-ydpi="96"><tspan
         sodipodi:role="line"
         id="tspan1683"
         x="118.04019"
         y="146.39697"
         style="stroke-width:0.26458332">T</tspan></text>
    <text
       xml:space="preserve"
       style="font-style:normal;font-weight:normal;font-size:10.58333302px;line-height:1.25;font-family:sans-serif;letter-spacing:0px;word-spacing:0px;fill:#000000;fill-opacity:1;stroke:none;stroke-width:0.26458332"
       x="118.19095"
       y="163.88441"
       id="text1689"
       inkscape:export-xdpi="96"
       inkscape:export-ydpi="96"><tspan
         sodipodi:role="line"
         id="tspan1687"
         x="118.19095"
         y="163.88441"
         style="stroke-width:0.26458332">F</tspan></text>
    <path
       style="fill:#000000;fill-opacity:1;stroke:#000000;stroke-width:0.26499999;stroke-linejoin:round;stroke-miterlimit:4;stroke-dasharray:none;stroke-opacity:1"
       id="path1693"
       d="m 120.8267,80.360342 c -0.004,0.669528 -0.004,1.33908 -0.004,2.008621 -10e-4,0.875707 -10e-4,1.751417 -2.7e-4,2.627125 -0.005,0.712732 -0.008,1.42377 0.0442,2.134764 0.0552,0.679738 0.0829,1.361077 0.0984,2.042729 -0.017,0.503089 0.0458,1.000344 0.10371,1.498552 0.0345,0.396558 0.0477,0.792255 0.0998,1.187016 0.0628,0.457727 0.0859,0.91912 0.1004,1.380464 0.009,0.340156 0.0114,0.680429 0.0116,1.020688 7.9e-4,0.208473 -2e-5,0.416944 -5.3e-4,0.625417 1.4e-4,0.184938 -1.3e-4,0.369877 5.3e-4,0.554813 -2.7e-4,0.156903 -6e-5,0.313803 -2.4e-4,0.470704 9e-5,0.0885 2.7e-4,0.177001 0.001,0.265496 -5.3e-4,0.115972 -0.001,0.231942 -0.001,0.347914 5.3e-4,0.145285 2.7e-4,0.290573 9e-5,0.435859 6e-5,0.09004 2.7e-4,0.180075 0.001,0.27011 0.002,0.18515 0.0144,0.02527 -0.48652,-0.01847 0,0 0.44926,-0.02593 0.44926,-0.02593 v 0 c -0.42849,0.07071 -0.41597,0.206708 -0.41439,0.0444 7.9e-4,-0.09004 0.001,-0.180072 0.001,-0.27011 -2.3e-4,-0.145285 -5.2e-4,-0.290573 9e-5,-0.435859 10e-6,-0.115972 -5.2e-4,-0.231942 -0.001,-0.347914 7.9e-4,-0.0885 0.001,-0.176995 0.001,-0.265493 -1.8e-4,-0.156903 9e-5,-0.313807 -2.3e-4,-0.47071 7.9e-4,-0.184951 5.3e-4,-0.369903 10e-4,-0.554855 -1.1e-4,-0.208457 1e-5,-0.416912 0.001,-0.625369 1.2e-4,-0.339786 1.3e-4,-0.679617 -0.009,-1.019318 -0.014,-0.459872 -0.0373,-0.91984 -0.10093,-1.375963 -0.0528,-0.394986 -0.0656,-0.79099 -0.10024,-1.187804 -0.0564,-0.499608 -0.11719,-0.998429 -0.0995,-1.502651 -0.015,-0.680905 -0.0416,-1.361575 -0.0978,-2.040496 -0.052,-0.712129 -0.0483,-1.42413 -0.0416,-2.137984 8e-4,-0.875707 0.001,-1.751417 -2.6e-4,-2.627125 -2.6e-4,-0.669541 0,-1.339093 -0.004,-2.008621 0,0 0.44736,0 0.44736,0 z"
       inkscape:connector-curvature="0"
       inkscape:export-xdpi="96"
       inkscape:export-ydpi="96" />
    <path
       style="fill:#000000;fill-opacity:1;stroke:#000000;stroke-width:0.26499999;stroke-linejoin:round;stroke-miterlimit:4;stroke-dasharray:none;stroke-opacity:1"
       id="path1695"
       d="m 120.44054,97.591141 c -0.32191,-0.475057 -0.59405,-0.981403 -0.87757,-1.479709 -0.24719,-0.405744 -0.47993,-0.820362 -0.71263,-1.234625 -0.19727,-0.35822 -0.35824,-0.734664 -0.55453,-1.093179 -0.0805,-0.189656 -0.15121,-0.378677 -0.24185,-0.564065 -0.063,-0.08425 -0.0583,-0.193705 -0.10352,-0.28366 -0.0439,-0.06743 -0.0752,-0.101227 -0.0343,-0.176512 0,0 0.44976,0.03423 0.44976,0.03423 v 0 c -0.0619,0.01384 0.0259,0.0876 0.0346,0.123143 0.0384,0.0928 0.045,0.196474 0.10267,0.282469 0.0893,0.184801 0.15658,0.374893 0.23948,0.562208 0.19254,0.359658 0.35293,0.735446 0.5507,1.092612 0.23384,0.413534 0.46695,0.827726 0.71224,1.234536 0.28154,0.498456 0.5525,1.005199 0.88112,1.474845 0,0 -0.44613,0.02771 -0.44613,0.02771 z"
       inkscape:connector-curvature="0"
       inkscape:export-xdpi="96"
       inkscape:export-ydpi="96" />
    <path
       style="fill:#000000;fill-opacity:1;stroke:#000000;stroke-width:0.26499999;stroke-linejoin:round;stroke-miterlimit:4;stroke-dasharray:none;stroke-opacity:1"
       id="path1697"
       d="m 121.01828,98.174071 c 0.19093,-0.547474 0.44048,-1.07219 0.68787,-1.595811 0.24548,-0.567875 0.58288,-1.086125 0.88803,-1.621443 0.18611,-0.335968 0.35547,-0.680593 0.53345,-1.020781 0.14891,-0.297109 0.29273,-0.596855 0.44558,-0.89199 0.11567,-0.229648 0.24472,-0.453184 0.34458,-0.690409 0.0298,-0.07444 0.0575,-0.149797 0.0785,-0.227211 0.0309,-0.05622 0.0794,-0.100462 0.12444,-0.145502 0.009,-0.0084 0.0179,-0.01799 0.0266,-0.027 1.6e-4,-7.94e-4 2.6e-4,-0.0013 5.3e-4,-0.0021 -0.006,0.0073 -0.012,0.01463 -0.018,0.02193 0,0 0.44998,-0.03572 0.44998,-0.03572 v 0 c 0.006,0.01923 0.0121,0.03845 0.0182,0.05768 -5e-5,-5.29e-4 -1.1e-4,-0.0011 -1.6e-4,-0.0016 -0.009,0.007 -0.0193,0.01397 -0.0268,0.02291 -0.0415,0.03967 -0.0799,0.08279 -0.12288,0.120605 -0.0216,0.07985 -0.051,0.157297 -0.0818,0.234037 -0.10033,0.238649 -0.22939,0.463642 -0.34703,0.693941 -0.1538,0.294709 -0.29664,0.595051 -0.44564,0.89218 -0.17958,0.340392 -0.34838,0.686375 -0.53696,1.022088 -0.30368,0.535282 -0.64618,1.049957 -0.89012,1.617991 -0.24594,0.520851 -0.49475,1.042808 -0.68061,1.588828 0,0 -0.44763,-0.01246 -0.44763,-0.01246 z"
       inkscape:connector-curvature="0"
       inkscape:export-xdpi="96"
       inkscape:export-ydpi="96" />
    <text
       xml:space="preserve"
       style="font-style:normal;font-weight:normal;font-size:7.53887415px;line-height:1.25;font-family:sans-serif;letter-spacing:0px;word-spacing:0px;fill:#000000;fill-opacity:1;stroke:none;stroke-width:0.18847185"
       x="40.589153"
       y="68.356453"
       id="text1707"
       transform="scale(0.98434758,1.0159013)"
       inkscape:export-xdpi="96"
       inkscape:export-ydpi="96"><tspan
         sodipodi:role="line"
         id="tspan1705"
         x="40.589153"
         y="68.356453"
         style="stroke-width:0.18847185">[[1]]</tspan></text>
    <text
       xml:space="preserve"
       style="font-style:normal;font-weight:normal;font-size:7.53887367px;line-height:1.25;font-family:sans-serif;letter-spacing:0px;word-spacing:0px;fill:#000000;fill-opacity:1;stroke:none;stroke-width:0.18847185"
       x="75.738205"
       y="68.356453"
       id="text1707-2"
       transform="scale(0.98434759,1.0159013)"
       inkscape:export-xdpi="96"
       inkscape:export-ydpi="96"><tspan
         sodipodi:role="line"
         id="tspan1705-0"
         x="75.738205"
         y="68.356453"
         style="stroke-width:0.18847185">[[2]]</tspan></text>
    <text
       xml:space="preserve"
       style="font-style:normal;font-weight:normal;font-size:7.53887367px;line-height:1.25;font-family:sans-serif;letter-spacing:0px;word-spacing:0px;fill:#000000;fill-opacity:1;stroke:none;stroke-width:0.18847185"
       x="114.98193"
       y="68.356453"
       id="text1707-2-2"
       transform="scale(0.98434759,1.0159013)"
       inkscape:export-xdpi="96"
       inkscape:export-ydpi="96"><tspan
         sodipodi:role="line"
         id="tspan1705-0-3"
         x="114.98193"
         y="68.356453"
         style="stroke-width:0.18847185">[[3]]</tspan></text>
  </g>
</svg>
