<?xml version="1.0" encoding="UTF-8" standalone="no"?>
<!-- Created with Inkscape (http://www.inkscape.org/) -->

<svg
   xmlns:dc="http://purl.org/dc/elements/1.1/"
   xmlns:cc="http://creativecommons.org/ns#"
   xmlns:rdf="http://www.w3.org/1999/02/22-rdf-syntax-ns#"
   xmlns:svg="http://www.w3.org/2000/svg"
   xmlns="http://www.w3.org/2000/svg"
   xmlns:sodipodi="http://sodipodi.sourceforge.net/DTD/sodipodi-0.dtd"
   xmlns:inkscape="http://www.inkscape.org/namespaces/inkscape"
   width="104.23827mm"
   height="82.109077mm"
   viewBox="0 0 104.23827 82.109077"
   version="1.1"
   id="svg8"
   inkscape:version="0.92.3 (2405546, 2018-03-11)"
   sodipodi:docname="matrix.svg">
  <defs
     id="defs2" />
  <sodipodi:namedview
     id="base"
     pagecolor="#ffffff"
     bordercolor="#666666"
     borderopacity="1.0"
     inkscape:pageopacity="0.0"
     inkscape:pageshadow="2"
     inkscape:zoom="2.5533149"
     inkscape:cx="204.27301"
     inkscape:cy="154.13695"
     inkscape:document-units="mm"
     inkscape:current-layer="layer1"
     showgrid="false"
     inkscape:window-width="1920"
     inkscape:window-height="1025"
     inkscape:window-x="1080"
     inkscape:window-y="969"
     inkscape:window-maximized="1" />
  <metadata
     id="metadata5">
    <rdf:RDF>
      <cc:Work
         rdf:about="">
        <dc:format>image/svg+xml</dc:format>
        <dc:type
           rdf:resource="http://purl.org/dc/dcmitype/StillImage" />
        <dc:title></dc:title>
      </cc:Work>
    </rdf:RDF>
  </metadata>
  <g
     inkscape:label="Layer 1"
     inkscape:groupmode="layer"
     id="layer1"
     transform="translate(-12.307775,-98.454739)">
    <rect
       style="fill:none;fill-opacity:1;stroke:#000000;stroke-width:0.40000001;stroke-linejoin:round;stroke-miterlimit:4;stroke-dasharray:none;stroke-opacity:1"
       id="rect815"
       width="22.86113"
       height="23.740404"
       x="44.002846"
       y="130.95377"
       inkscape:export-xdpi="96"
       inkscape:export-ydpi="96" />
    <rect
       y="156.62341"
       x="44.002846"
       height="23.740404"
       width="22.86113"
       id="rect2251"
       style="fill:none;fill-opacity:1;stroke:#000000;stroke-width:0.40000001;stroke-linejoin:round;stroke-miterlimit:4;stroke-dasharray:none;stroke-opacity:1"
       inkscape:export-xdpi="96"
       inkscape:export-ydpi="96" />
    <rect
       y="130.95377"
       x="68.698578"
       height="23.740406"
       width="22.861132"
       id="rect2251-3"
       style="fill:none;fill-opacity:1;stroke:#000000;stroke-width:0.40000001;stroke-linejoin:round;stroke-miterlimit:4;stroke-dasharray:none;stroke-opacity:1"
       inkscape:export-xdpi="96"
       inkscape:export-ydpi="96" />
    <rect
       y="156.62341"
       x="69.036278"
       height="23.740406"
       width="22.861134"
       id="rect2251-3-6"
       style="fill:none;fill-opacity:1;stroke:#000000;stroke-width:0.40000001;stroke-linejoin:round;stroke-miterlimit:4;stroke-dasharray:none;stroke-opacity:1"
       inkscape:export-xdpi="96"
       inkscape:export-ydpi="96" />
    <rect
       y="130.95377"
       x="93.484909"
       height="23.740406"
       width="22.861134"
       id="rect2251-3-7"
       style="fill:none;fill-opacity:1;stroke:#000000;stroke-width:0.40000001;stroke-linejoin:round;stroke-miterlimit:4;stroke-dasharray:none;stroke-opacity:1"
       inkscape:export-xdpi="96"
       inkscape:export-ydpi="96" />
    <rect
       y="156.62341"
       x="93.484909"
       height="23.740406"
       width="22.861134"
       id="rect2251-3-6-5"
       style="fill:none;fill-opacity:1;stroke:#000000;stroke-width:0.40000001;stroke-linejoin:round;stroke-miterlimit:4;stroke-dasharray:none;stroke-opacity:1"
       inkscape:export-xdpi="96"
       inkscape:export-ydpi="96" />
    <text
       xml:space="preserve"
       style="font-style:normal;font-weight:normal;font-size:10.58333302px;line-height:1.25;font-family:sans-serif;letter-spacing:0px;word-spacing:0px;fill:#000000;fill-opacity:1;stroke:none;stroke-width:0.26458332"
       x="29.804863"
       y="147.92883"
       id="text6006"
       inkscape:export-xdpi="96"
       inkscape:export-ydpi="96"><tspan
         sodipodi:role="line"
         id="tspan6004"
         x="29.804863"
         y="147.92883"
         style="stroke-width:0.26458332">1</tspan></text>
    <text
       xml:space="preserve"
       style="font-style:normal;font-weight:normal;font-size:10.58333302px;line-height:1.25;font-family:sans-serif;letter-spacing:0px;word-spacing:0px;fill:#000000;fill-opacity:1;stroke:none;stroke-width:0.26458332"
       x="29.887547"
       y="172.10875"
       id="text6010"
       inkscape:export-xdpi="96"
       inkscape:export-ydpi="96"><tspan
         sodipodi:role="line"
         id="tspan6008"
         x="29.887547"
         y="172.10875"
         style="stroke-width:0.26458332">2</tspan></text>
    <text
       xml:space="preserve"
       style="font-style:normal;font-weight:normal;font-size:10.58333302px;line-height:1.25;font-family:sans-serif;letter-spacing:0px;word-spacing:0px;fill:#000000;fill-opacity:1;stroke:none;stroke-width:0.26458332"
       x="101.31918"
       y="124.81525"
       id="text6014"
       inkscape:export-xdpi="96"
       inkscape:export-ydpi="96"><tspan
         sodipodi:role="line"
         id="tspan6012"
         x="101.31918"
         y="124.81525"
         style="stroke-width:0.26458332">3</tspan></text>
    <text
       xml:space="preserve"
       style="font-style:normal;font-weight:normal;font-size:10.58333302px;line-height:1.25;font-family:sans-serif;letter-spacing:0px;word-spacing:0px;fill:#000000;fill-opacity:1;stroke:none;stroke-width:0.26458332"
       x="51.844086"
       y="124.67575"
       id="text6006-3"
       inkscape:export-xdpi="96"
       inkscape:export-ydpi="96"><tspan
         sodipodi:role="line"
         id="tspan6004-5"
         x="51.844086"
         y="124.67575"
         style="stroke-width:0.26458332">1</tspan></text>
    <text
       xml:space="preserve"
       style="font-style:normal;font-weight:normal;font-size:10.58333302px;line-height:1.25;font-family:sans-serif;letter-spacing:0px;word-spacing:0px;fill:#000000;fill-opacity:1;stroke:none;stroke-width:0.26458332"
       x="76.552345"
       y="124.81525"
       id="text6010-6"
       inkscape:export-xdpi="96"
       inkscape:export-ydpi="96"><tspan
         sodipodi:role="line"
         id="tspan6008-2"
         x="76.552345"
         y="124.81525"
         style="stroke-width:0.26458332">2</tspan></text>
    <path
       style="fill:none;stroke:#000000;stroke-width:0.26458332px;stroke-linecap:butt;stroke-linejoin:miter;stroke-opacity:1"
       d="m 45.429169,115.13678 c 0.293093,-0.58618 1.318913,-2.12491 1.318913,-2.12491 1.463352,-1.77934 19.465028,-3.48328 30.921142,-2.19819 l 1.612003,-3.44383 1.758549,3.29729 c 6.402465,-0.34144 21.365624,-1.35363 32.533144,2.05163 l 1.17237,1.97837 v 0 0"
       id="path6054"
       inkscape:connector-curvature="0"
       sodipodi:nodetypes="ccccccccc"
       inkscape:export-xdpi="96"
       inkscape:export-ydpi="96" />
    <path
       style="fill:none;fill-opacity:1;stroke:#000000;stroke-width:0.40000001;stroke-linejoin:round;stroke-miterlimit:4;stroke-dasharray:none;stroke-opacity:1"
       id="path6064"
       d="m 66.866936,101.0753 c -0.22047,-0.026 -0.442058,-0.0396 -0.663694,-0.0506 -0.02754,-10e-4 0.05509,0.003 0.08263,0.004 -0.261427,0.0335 -0.47742,0.17632 -0.675,0.34125 -0.212341,0.18907 -0.339548,0.43819 -0.444323,0.69756 -0.110132,0.31788 -0.161821,0.64519 -0.168568,0.98024 -0.01714,0.27759 0.05724,0.52987 0.182983,0.77318 0.126016,0.19191 0.315359,0.29951 0.518022,0.39293 0.18746,0.0857 0.39033,0.11328 0.593659,0.12902 -0.04227,-0.002 -0.08639,0.008 -0.126817,-0.005 -0.02669,-0.008 0.05575,-0.004 0.08333,-0.009 0.121602,-0.0194 0.237066,-0.0597 0.352731,-0.10035 0.167992,-0.0602 0.345747,-0.0889 0.512313,-0.15219 0.160536,-0.0523 0.26397,-0.16177 0.360495,-0.29278 0.02508,-0.0451 0.125677,-0.11629 0.0725,-0.17091 -0.03741,-0.0152 -0.01799,-0.008 -0.05835,-0.0211 0,0 0.217109,-0.0265 0.217109,-0.0265 v 0 c 0.04219,0.018 0.02222,0.007 0.05981,0.0341 0.04484,0.0803 -0.02836,0.13592 -0.07398,0.19822 -0.09854,0.13269 -0.198088,0.25079 -0.362342,0.30472 -0.16469,0.0684 -0.344162,0.0932 -0.512384,0.15305 -0.244573,0.0864 -0.472519,0.14713 -0.738772,0.11926 -0.203978,-0.0177 -0.406821,-0.0486 -0.594035,-0.1367 -0.205038,-0.0964 -0.394422,-0.21034 -0.518789,-0.40719 -0.12555,-0.24699 -0.199599,-0.50313 -0.181825,-0.78383 0.007,-0.33753 0.05879,-0.66731 0.168204,-0.98801 0.104786,-0.26246 0.231907,-0.51493 0.444333,-0.7081 0.198115,-0.16805 0.41424,-0.3146 0.676741,-0.35561 0.337563,-0.003 0.673963,0.004 1.009235,0.0484 0,0 -0.215215,0.0314 -0.215215,0.0314 z"
       inkscape:connector-curvature="0"
       inkscape:export-xdpi="96"
       inkscape:export-ydpi="96" />
    <path
       style="fill:none;fill-opacity:1;stroke:#000000;stroke-width:0.40000001;stroke-linejoin:round;stroke-miterlimit:4;stroke-dasharray:none;stroke-opacity:1"
       id="path6066"
       d="m 69.802543,101.11486 c -0.227253,0.12561 -0.428286,0.28638 -0.605752,0.47497 -0.153245,0.16531 -0.271976,0.35657 -0.353928,0.56589 -0.09526,0.22573 -0.122791,0.46385 -0.118282,0.70631 -0.0013,0.21147 0.06161,0.41091 0.160853,0.59534 0.09754,0.14421 0.232111,0.25345 0.378471,0.34465 0.123634,0.0529 0.244602,0.11369 0.37402,0.15152 0.140983,0.0344 0.285311,0.0572 0.425704,0.0939 0.02209,0.007 0.04413,0.0135 0.0663,0.0199 0.02365,0.007 0.09956,0.0283 0.12461,0.0312 0.02082,0.002 0.0838,0.001 0.06286,2.6e-4 -0.160888,-0.006 -0.202682,0.008 -0.09263,-0.017 0.13027,-0.0358 0.236153,-0.12094 0.336875,-0.2072 0.136467,-0.11353 0.229489,-0.26378 0.319447,-0.41416 0.08791,-0.14996 0.161661,-0.30374 0.202179,-0.47305 0.02866,-0.14513 0.02974,-0.29354 0.03101,-0.44089 9e-5,-0.12576 -7.93e-4,-0.25153 -0.0016,-0.37729 -1.51e-4,-0.0903 0.0074,-0.17844 -0.02164,-0.26482 -0.04386,-0.0714 -0.09726,-0.12141 -0.169772,-0.16261 -0.101198,-0.0367 -0.203468,-0.0705 -0.306205,-0.10323 -0.09953,-0.0185 -0.194742,-0.0529 -0.285983,-0.0963 -0.108167,-0.0499 -0.225767,-0.0712 -0.34344,-0.0831 -0.08676,-0.006 -0.489183,-0.0173 -0.109638,-0.002 -0.08704,0.0187 -0.172299,0.027 -0.229756,0.0992 0,0 -0.217818,-0.0138 -0.217818,-0.0138 v 0 c 0.06158,-0.0899 0.129439,-0.0919 0.231565,-0.11579 0.180454,-0.007 0.361024,-0.018 0.541219,1.5e-4 0.118441,0.0141 0.236056,0.0383 0.344522,0.0899 0.09234,0.0404 0.18683,0.0734 0.285684,0.0938 0.102867,0.0344 0.207862,0.0637 0.306829,0.10807 0.07319,0.0459 0.130318,0.10101 0.171207,0.17822 0.02795,0.089 0.02177,0.17904 0.02122,0.27158 2.65e-4,0.12586 0.0016,0.25172 7.94e-4,0.37758 -0.0013,0.14898 -0.0026,0.29899 -0.03123,0.44577 -0.0405,0.17165 -0.114075,0.32763 -0.203065,0.47964 -0.09058,0.15192 -0.182435,0.30519 -0.319148,0.4211 -0.100881,0.0884 -0.207267,0.17671 -0.337508,0.21709 -0.197218,0.0592 -0.401878,0.0263 -0.592463,-0.0342 -0.141539,-0.0341 -0.2852,-0.0595 -0.426535,-0.0949 -0.128923,-0.0406 -0.251645,-0.10052 -0.373771,-0.15748 -0.146992,-0.0952 -0.283229,-0.2069 -0.378971,-0.35584 -0.09889,-0.18818 -0.161682,-0.39089 -0.160083,-0.60553 -0.0046,-0.24501 0.02254,-0.48623 0.11775,-0.71473 0.08194,-0.21203 0.200636,-0.40634 0.355108,-0.57408 0.177067,-0.19044 0.377653,-0.3531 0.604498,-0.48159 0,0 0.216281,0.0228 0.216281,0.0228 z"
       inkscape:connector-curvature="0"
       inkscape:export-xdpi="96"
       inkscape:export-ydpi="96" />
    <path
       style="fill:none;fill-opacity:1;stroke:#000000;stroke-width:0.40000001;stroke-linejoin:round;stroke-miterlimit:4;stroke-dasharray:none;stroke-opacity:1"
       id="path6068"
       d="m 72.730753,98.654789 c 0.06242,0.444638 0.124058,0.889445 0.17779,1.335236 0.07739,0.601195 0.153368,1.202385 0.202226,1.806655 0.02061,0.46438 0.06143,0.9273 0.09389,1.39091 0.01061,0.25807 0.05529,0.51285 0.08287,0.76932 0.01294,0.11542 0.01961,0.2314 0.02156,0.34748 5.3e-4,0.10881 4.3e-5,0.21762 -1.66e-4,0.32642 -3e-6,0.0549 6.1e-5,0.10979 5.29e-4,0.16469 7.94e-4,0.085 0.0073,0.013 -0.219234,-0.0147 0,0 0.218932,0 0.218932,0 v 0 c -0.226443,0.0277 -0.220241,0.0997 -0.219191,0.0146 5.29e-4,-0.0549 7.94e-4,-0.10979 0.0011,-0.16469 2.36e-4,-0.10867 7.94e-4,-0.21734 -2.35e-4,-0.32601 -0.0019,-0.11541 -0.0075,-0.23074 -0.01979,-0.34556 -0.02674,-0.25672 -0.0703,-0.51188 -0.07995,-0.77015 -0.0311,-0.46354 -0.07006,-0.92646 -0.09032,-1.39068 -0.04813,-0.60405 -0.124249,-1.20496 -0.202332,-1.805794 -0.05491,-0.445995 -0.116438,-0.891249 -0.184727,-1.335378 0,0 0.217183,-0.0024 0.217183,-0.0024 z"
       inkscape:connector-curvature="0"
       inkscape:export-xdpi="96"
       inkscape:export-ydpi="96" />
    <path
       style="fill:none;fill-opacity:1;stroke:#000000;stroke-width:0.40000001;stroke-linejoin:round;stroke-miterlimit:4;stroke-dasharray:none;stroke-opacity:1"
       id="path6070"
       d="m 74.920045,101.66894 c 7.94e-4,0.36651 -0.01011,0.73327 0.0071,1.09947 0.02045,0.2727 0.05809,0.54676 0.119552,0.81352 0.02831,0.13761 0.100417,0.25559 0.172005,0.3738 0.05885,0.0768 0.153639,0.0893 0.243835,0.0988 0.07934,-0.007 0.238887,0.0429 -0.09192,-0.003 -0.01564,-0.002 0.03105,-0.006 0.04598,-0.0115 0.0227,-0.008 0.06698,-0.0318 0.08755,-0.0424 0.08627,-0.0535 0.157027,-0.1232 0.215342,-0.20574 0.06533,-0.11431 0.103941,-0.24007 0.153331,-0.36142 0.04303,-0.10611 0.08457,-0.21375 0.133548,-0.31732 0.0568,-0.0997 0.06771,-0.21114 0.09008,-0.32107 0.04054,-0.16511 0.05504,-0.33441 0.06482,-0.50364 0.01318,-0.14929 0.0082,-0.29499 -0.02569,-0.44085 -0.02106,-0.08 -0.03274,-0.16138 -0.03854,-0.24372 -0.0056,-0.12201 -0.03324,-0.14641 0.215644,-0.0452 0.01696,0.007 -1.86e-4,0.0366 -2.65e-4,0.0549 0.0024,0.25124 0.05393,0.49911 0.0847,0.74793 0.04491,0.37802 0.107892,0.75257 0.203859,1.12106 0.06272,0.17223 0.0801,0.40244 0.223314,0.53245 0.07725,0.004 0.256106,0.0619 -0.08966,0.002 -0.01021,-0.002 0.02697,-0.008 0.06797,-0.0504 0.02711,-0.0302 0.02466,-0.0721 0.02609,-0.11021 0,0 0.218638,7.9e-4 0.218638,7.9e-4 v 0 c -0.0013,0.0425 7.94e-4,0.0903 -0.0263,0.1257 -0.100306,0.11609 -0.281701,0.10842 -0.414067,0.0494 -0.136062,-0.14285 -0.159295,-0.36478 -0.220168,-0.54439 -0.09448,-0.36969 -0.157416,-0.74515 -0.203822,-1.12379 -0.03177,-0.24975 -0.0841,-0.49835 -0.08856,-0.75057 -0.0016,-0.20627 0.262662,-0.15823 0.221308,-0.0113 0.0055,0.0812 0.0176,0.16142 0.03781,0.24038 0.03259,0.14802 0.03824,0.29581 0.02469,0.44697 -0.0099,0.17018 -0.024,0.34059 -0.06439,0.50674 -0.02268,0.11156 -0.0319,0.2251 -0.08951,0.32648 -0.05019,0.10253 -0.09056,0.21057 -0.134027,0.31602 -0.0506,0.1224 -0.08924,0.2494 -0.153115,0.36605 -0.05771,0.0866 -0.130082,0.1578 -0.216164,0.21636 -0.160928,0.0847 -0.285851,0.0871 -0.474586,0.0651 -0.09483,-0.0129 -0.188275,-0.0344 -0.245459,-0.1186 -0.07187,-0.12028 -0.143071,-0.24112 -0.17063,-0.38077 -0.06005,-0.26826 -0.09725,-0.54342 -0.116705,-0.81737 -0.01659,-0.36655 -0.005,-0.73361 -0.01048,-1.10045 0,0 0.216924,0 0.216924,0 z"
       inkscape:connector-curvature="0"
       inkscape:export-xdpi="96"
       inkscape:export-ydpi="96" />
    <path
       style="fill:none;fill-opacity:1;stroke:#000000;stroke-width:0.40000001;stroke-linejoin:round;stroke-miterlimit:4;stroke-dasharray:none;stroke-opacity:1"
       id="path6072"
       d="m 77.81278,101.57311 c 0.170786,0.31544 0.277265,0.65694 0.378132,0.99931 0.09168,0.34339 0.170251,0.68933 0.216601,1.04181 0.01897,0.20756 0.02376,0.41459 0.06514,0.61932 0.01111,0.0433 0.01839,0.0887 0.03718,0.12959 -0.269021,-0.006 -0.223933,0.0231 -0.313111,-0.16258 -0.08084,-0.18371 -0.126079,-0.37823 -0.15634,-0.5758 -0.03303,-0.29392 -0.04404,-0.59088 -0.03037,-0.88629 0.01233,-0.25195 0.06669,-0.49958 0.150188,-0.73703 0.06828,-0.16849 0.159983,-0.3238 0.2691,-0.46863 0.09202,-0.13013 0.225124,-0.20863 0.358958,-0.2876 0.120232,-0.0713 0.23935,-0.13892 0.37947,-0.15723 0.261872,-0.0231 0.382167,0.004 0.582737,0.13945 0.10836,0.065 0.165704,0.1693 0.218472,0.27983 0.05967,0.15891 0.06937,0.33116 0.09794,0.49757 0.03881,0.2385 0.0449,0.48052 0.05119,0.72157 0.01947,0.20836 0.04935,0.41539 0.0649,0.62414 0.01871,0.14283 -0.0039,0.2903 0.02246,0.43182 0.01328,0.0455 0.02762,0.0932 0.05662,0.13156 -0.0039,0.003 0.0076,0.004 0.0069,0.004 -0.234204,-0.0243 -0.20541,0.0403 -0.250114,-0.0866 -0.06254,-0.12537 -0.09829,-0.26302 -0.130529,-0.39892 -0.04141,-0.18364 -0.08567,-0.365 -0.107363,-0.55237 -0.03214,-0.23484 -0.0093,-0.46926 0.01127,-0.70371 0.02965,-0.21808 0.06676,-0.43499 0.139221,-0.64322 0.0363,-0.12751 0.101857,-0.24239 0.15421,-0.36319 0.0523,-0.0989 0.160576,-0.1063 0.260723,-0.11532 0.213657,-0.008 0.427681,-0.0191 0.63907,0.0181 0.105118,0.0169 0.200654,0.0678 0.287459,0.12755 0.131524,0.10923 0.143351,0.31276 0.172365,0.47062 0.04759,0.29713 0.05711,0.59847 0.06527,0.89874 0.0052,0.26151 0.0044,0.5231 0.0044,0.78465 -0.008,0.20356 5.29e-4,0.40422 0.03309,0.60512 0.02806,0.1141 0.06277,0.22806 0.0996,0.34003 0.03435,0.0983 0.05972,0.1991 0.0798,0.30119 0.0097,0.06 0.192876,0.0713 -0.181933,0.004 -0.0078,-0.001 0.01093,-0.0115 0.01582,-0.0177 0.01164,-0.0148 0.0297,-0.0419 0.04022,-0.0574 0.02558,-0.0609 0.01405,-0.0268 0.03165,-0.103 0,0 0.217626,0.005 0.217626,0.005 v 0 c -0.01714,0.0811 -0.006,0.0443 -0.03101,0.11124 -0.06172,0.0921 -0.237897,0.30282 -0.311123,0.0625 -0.01905,-0.10131 -0.0445,-0.20109 -0.07862,-0.29847 -0.03666,-0.11316 -0.07358,-0.22764 -0.09924,-0.34348 -0.03141,-0.20216 -0.03993,-0.40393 -0.03173,-0.60856 5.3e-4,-0.26136 0.0013,-0.52275 -0.0037,-0.78408 -0.0074,-0.29916 -0.01693,-0.59945 -0.06567,-0.89529 -0.02932,-0.15355 -0.04066,-0.35151 -0.174146,-0.45332 -0.0866,-0.0573 -0.181631,-0.10339 -0.285363,-0.11847 -0.06915,-0.0113 -0.313275,-0.0207 -0.0034,-0.0198 0.04648,1.3e-4 -0.183206,2e-4 -0.139446,0.001 -0.02186,8e-4 -0.04373,0.002 -0.0656,0.002 -0.09239,0.006 -0.20337,0.004 -0.258003,0.0919 -0.0524,0.12048 -0.119052,0.23442 -0.155626,0.36158 -0.07338,0.20614 -0.110468,0.42145 -0.140515,0.63776 -0.02013,0.23303 -0.0424,0.46595 -0.01016,0.69931 0.02217,0.18641 0.06655,0.36696 0.107559,0.54981 0.03266,0.13541 0.0701,0.27143 0.132334,0.39655 0.03679,0.10275 0.05087,0.30163 -0.194453,0.1033 -0.0266,-0.0432 -0.04341,-0.0917 -0.05555,-0.14078 -0.0245,-0.14263 -0.0031,-0.29031 -0.02114,-0.43407 -0.0154,-0.20906 -0.04508,-0.41645 -0.0637,-0.62519 -0.006,-0.24006 -0.01289,-0.48105 -0.05227,-0.71844 -0.02831,-0.16444 -0.03797,-0.33496 -0.09867,-0.49144 -0.05294,-0.10767 -0.110998,-0.20599 -0.217881,-0.26816 -0.06897,-0.0444 -0.145029,-0.0933 -0.224944,-0.11516 -0.0231,-0.006 -0.09446,-0.007 -0.07091,-0.0118 0.04755,-0.009 0.09672,-0.001 0.145082,-0.002 -0.140962,0.009 -0.258231,0.0779 -0.37833,0.14773 -0.131271,0.0791 -0.267394,0.14988 -0.358516,0.27929 -0.109334,0.14247 -0.200935,0.29549 -0.269666,0.4619 -0.08439,0.23505 -0.138665,0.48077 -0.151773,0.73065 -0.01371,0.294 -0.0021,0.58953 0.03146,0.88197 0.03068,0.19549 0.07642,0.388 0.157904,0.56926 0.03376,0.0682 0.231854,0.34502 -0.123619,0.18188 -0.01582,-0.0438 -0.02561,-0.0894 -0.03531,-0.13481 -0.03918,-0.20545 -0.04419,-0.41283 -0.06266,-0.62076 -0.04506,-0.35143 -0.122669,-0.69639 -0.214561,-1.03848 -0.100764,-0.34164 -0.207862,-0.68245 -0.382066,-0.99536 0,0 0.216995,-0.0101 0.216995,-0.0101 z"
       inkscape:connector-curvature="0"
       inkscape:export-xdpi="96"
       inkscape:export-ydpi="96" />
    <path
       style="fill:none;fill-opacity:1;stroke:#000000;stroke-width:0.40000001;stroke-linejoin:round;stroke-miterlimit:4;stroke-dasharray:none;stroke-opacity:1"
       id="path6074"
       d="m 82.78679,101.34515 c 0.133512,0.30821 0.216914,0.63616 0.291629,0.96279 0.100931,0.37483 0.134266,0.76118 0.18496,1.14441 0.02693,0.17921 0.05639,0.35802 0.0774,0.53806 0.06092,0.18287 -0.244792,0.0995 -0.166209,0.0324 0.04216,-0.0486 0.03037,0.003 0.0089,-0.0232 -0.08878,-0.094 -0.09325,-0.23684 -0.117221,-0.3575 -0.05092,-0.25585 -0.06427,-0.51674 -0.0751,-0.77673 -0.0075,-0.20437 -0.009,-0.40888 -0.009,-0.61337 0.0087,-0.15022 -0.01484,-0.30373 0.0088,-0.45269 0.01558,-0.0976 0.06082,-0.17776 0.11068,-0.26094 0.08628,-0.12153 0.199007,-0.21995 0.314831,-0.31221 0.144124,-0.1096 0.310208,-0.17473 0.48491,-0.21567 0.263567,-0.0586 0.417486,-0.0397 0.596074,0.13402 0.115972,0.11017 0.179025,0.25883 0.261213,0.39315 0.07451,0.10455 0.12429,0.2199 0.180387,0.3342 0.05564,0.0998 0.07679,0.20592 0.086,0.31834 0.01659,0.2024 0.04504,0.40361 0.06019,0.60639 0.0066,0.24828 0.02678,0.49481 0.05222,0.74178 0.02993,0.17535 0.01297,0.35757 0.04784,0.53173 0.01275,0.0627 0.05443,0.10788 0.112033,0.13277 0.0089,0.004 0.0163,0.004 0.02508,0.002 0,0 -0.217101,0.0338 -0.217101,0.0338 v 0 c -0.0087,-0.004 -0.01757,-0.007 -0.02596,-0.0119 -0.05807,-0.0342 -0.09916,-0.085 -0.111916,-0.15265 -0.03267,-0.1752 -0.01635,-0.35752 -0.04555,-0.53369 -0.02516,-0.24717 -0.04618,-0.49387 -0.05254,-0.74235 -0.01545,-0.20276 -0.04432,-0.40384 -0.06188,-0.60616 -0.0099,-0.10972 -0.03173,-0.21305 -0.0861,-0.31041 -0.05425,-0.1146 -0.107641,-0.22702 -0.179835,-0.33213 -0.08049,-0.13345 -0.144066,-0.27997 -0.260675,-0.3874 -0.03865,-0.0358 -0.06592,-0.0656 -0.112152,-0.0915 -0.05016,-0.0282 -0.31106,-0.0871 0.01955,-0.0433 0.02408,0.003 -0.04789,0.008 -0.07184,0.0124 -0.174019,0.0375 -0.339368,0.0991 -0.483807,0.20598 -0.11462,0.0905 -0.225909,0.18627 -0.313388,0.30437 -0.04783,0.0813 -0.0949,0.15747 -0.110281,0.25285 -0.0254,0.14745 -7.94e-4,0.30023 -0.01,0.4491 2.38e-4,0.20418 2.64e-4,0.40841 0.0075,0.6125 0.01042,0.25893 0.02431,0.51875 0.07627,0.77331 0.0236,0.11602 0.02772,0.25664 0.11919,0.3428 0.03753,0.0175 0.01043,0.0437 -0.0092,0.0609 -0.131363,0.11694 -0.281842,0.0949 -0.270261,-0.0486 -0.01902,-0.17995 -0.04789,-0.35859 -0.07343,-0.53769 -0.04953,-0.38266 -0.08228,-0.76835 -0.183775,-1.14237 -0.07521,-0.32564 -0.158324,-0.65317 -0.295944,-0.9588 0,0 0.217435,-0.009 0.217435,-0.009 z"
       inkscape:connector-curvature="0"
       inkscape:export-xdpi="96"
       inkscape:export-ydpi="96" />
    <path
       style="fill:none;fill-opacity:1;stroke:#000000;stroke-width:0.40000001;stroke-linejoin:round;stroke-miterlimit:4;stroke-dasharray:none;stroke-opacity:1"
       id="path6076"
       d="m 88.042521,101.27505 c -0.170082,-0.0638 -0.343712,-0.098 -0.525105,-0.10014 -0.02484,-2.7e-4 0.0978,-0.004 0.0744,0.004 -0.04111,0.0146 -0.08663,0.0106 -0.129948,0.0159 -0.208984,0.0404 -0.396327,0.14436 -0.560427,0.27687 -0.101034,0.0963 -0.177938,0.20815 -0.22166,0.34047 -0.04036,0.11928 -0.03221,0.23359 0.0046,0.35186 0.04527,0.15675 0.144039,0.28906 0.233508,0.42302 0.09475,0.12564 0.214037,0.21072 0.373661,0.21207 -0.04501,-0.004 -0.102608,0.0185 -0.135017,-0.0131 -0.02191,-0.0213 0.05718,-0.022 0.08413,-0.0364 0.122647,-0.0656 0.239376,-0.14985 0.356243,-0.22528 0.118334,-0.0869 0.240919,-0.16369 0.382135,-0.20547 0.294965,-0.0255 0.377063,-0.041 0.450021,0.21976 0.04583,0.25067 0.04383,0.5071 0.04681,0.76104 0.0078,0.2082 -0.0031,0.41694 -0.05245,0.61976 -0.02711,0.12219 -0.105278,0.20685 -0.201168,0.28103 -0.113954,0.0828 -0.228918,0.16475 -0.338987,0.25262 -0.09081,0.0774 -0.195813,0.11957 -0.312002,0.13887 -0.191294,0.0193 -0.384659,0.0124 -0.576503,0.0124 -0.116086,-0.017 -0.229629,-0.0469 -0.345877,-0.0629 -0.08018,-0.015 -0.164991,10e-4 -0.242676,-0.0237 -0.06873,-0.025 -0.108804,-0.0936 -0.15132,-0.14979 -0.01259,-0.0243 -0.03356,-0.0334 -0.05665,-0.045 0,0 0.217834,-0.0229 0.217834,-0.0229 v 0 c 0.02252,0.0146 0.04343,0.0298 0.05708,0.0537 0.04127,0.0544 0.07985,0.11699 0.149725,0.13514 0.07958,0.015 0.161993,0.007 0.242003,0.0215 0.115367,0.0179 0.2285,0.0485 0.344837,0.0599 -0.375915,2.7e-4 0.07791,0.003 0.145796,-0.009 0.115194,-0.0154 0.220358,-0.0513 0.311002,-0.1273 0.108683,-0.0896 0.225552,-0.16969 0.33886,-0.25348 0.09444,-0.0683 0.173299,-0.14907 0.201038,-0.2661 0.05045,-0.20077 0.06108,-0.40783 0.05409,-0.61427 -0.0026,-0.252 -7.94e-4,-0.50673 -0.04829,-0.75516 -0.01577,-0.0527 -0.02283,-0.0966 -0.05634,-0.14099 -0.04123,-0.0547 -0.09589,-0.0476 -0.08254,-0.0497 0.05665,-0.009 0.114699,-0.002 0.171942,-0.005 0.01667,-10e-4 -0.03335,-10e-4 -0.05003,-0.002 -0.14211,0.0377 -0.265684,0.1103 -0.382913,0.19884 -0.06844,0.0441 -0.38454,0.26166 -0.440779,0.27026 -0.09735,0.0149 -0.196671,0.0107 -0.295006,0.016 -0.160898,-0.0136 -0.281193,-0.10292 -0.375221,-0.23235 -0.09034,-0.13591 -0.189349,-0.27019 -0.234413,-0.42931 -0.03689,-0.12256 -0.04624,-0.24169 -0.0047,-0.36514 0.04357,-0.13677 0.120637,-0.25193 0.223145,-0.35281 0.164145,-0.13621 0.353123,-0.24309 0.563234,-0.28865 0.342038,-0.0472 0.684824,-0.0364 1.009647,0.085 0,0 -0.215751,0.0263 -0.215751,0.0263 z"
       inkscape:connector-curvature="0"
       inkscape:export-xdpi="96"
       inkscape:export-ydpi="96" />
    <path
       style="fill:none;stroke:#000000;stroke-width:0.21856169px;stroke-linecap:butt;stroke-linejoin:miter;stroke-opacity:1"
       d="m 28.78587,178.68952 c -0.58991,-0.19874 -2.13844,-0.8943 -2.13844,-0.8943 -1.79068,-0.99223 -3.50548,-13.19836 -2.2122,-20.96624 l -3.46577,-1.09303 3.3183,-1.19239 c -0.34362,-4.34123 -1.36226,-14.48708 2.0647,-22.05927 l 1.99097,-0.79494 v 0 0"
       id="path6054-2"
       inkscape:connector-curvature="0"
       sodipodi:nodetypes="ccccccccc"
       inkscape:export-xdpi="96"
       inkscape:export-ydpi="96" />
    <g
       id="g6105"
       transform="rotate(-90,11.106684,151.65164)"
       inkscape:export-xdpi="96"
       inkscape:export-ydpi="96">
      <path
         inkscape:connector-curvature="0"
         d="m 0.71252394,153.44353 c 0.0803765,0.31323 0.13425424,0.63197 0.18427086,0.9512 0.0546158,0.48025 0.0856472,0.96334 0.1174093,1.44567 0.02554,0.40286 0.037586,0.8064 0.044562,1.20996 0.00439,0.14516 0.043819,0.28538 0.063464,0.42843 0.00585,0.0488 0.011126,0.0978 0.013716,0.14694 0.00256,0.0873 -0.012165,0.0567 -0.22768766,-0.0399 -0.0171082,-0.008 -0.008103,-0.0366 -0.0121542,-0.0549 -0.0275807,-0.18908 -0.0713622,-0.375 -0.11166475,-0.56165 -0.0542143,-0.2434 -0.0705338,-0.49251 -0.0812007,-0.74092 -0.007297,-0.24419 -0.006227,-0.48854 -0.006214,-0.73282 3.8365e-4,-0.20483 3.6513e-4,-0.40967 3.4396e-4,-0.6145 -2.595e-5,-0.15292 -4.667e-5,-0.30584 -5.749e-5,-0.45875 -0.0122076,-0.13844 0.0195649,-0.27194 0.0439573,-0.40688 0.0267523,-0.14492 0.14263376,-0.22378 0.24890137,-0.31191 0.15965967,-0.11624 0.31444487,-0.2386 0.46408327,-0.36745 0.09286,-0.0733 0.1662831,-0.17067 0.2676935,-0.23269 0.044463,-0.0211 0.092991,-0.0291 0.1417299,-0.0308 0.2522378,-0.0382 0.2003269,-0.0138 0.330777,0.0611 0.032159,0.008 0.064852,0.0134 0.097885,0.0155 0.022201,0.0378 0.011376,0.0172 0.031661,0.0623 0,0 -0.2183741,0.01 -0.2183741,0.01 v 0 c -0.018893,-0.0355 -0.00662,-0.0242 -0.030429,-0.0399 -0.033776,-0.004 -0.068061,-0.01 -0.098805,-0.0252 -0.091554,-0.0568 -0.184279,-0.0823 0.1037963,-0.0496 -0.047731,-0.001 -0.095265,0.004 -0.140748,0.0196 -0.1046739,0.0561 -0.1768425,0.15522 -0.2691514,0.22837 -0.1493533,0.12915 -0.3037012,0.25223 -0.4637781,0.36789 -0.1018491,0.0847 -0.2199202,0.15804 -0.24750034,0.29676 -0.0240437,0.13374 -0.0569481,0.26569 -0.0443077,0.40299 -2.651e-5,0.15292 -7.094e-5,0.30585 -3.6248e-4,0.45877 -4.2069e-4,0.20484 -0.001172,0.40967 -0.001402,0.61451 -3.9952e-4,0.24396 -0.001241,0.488 0.006204,0.73188 0.0102351,0.24722 0.0267581,0.49505 0.0809339,0.73721 0.040911,0.18663 0.085045,0.37257 0.1139164,0.56155 0.00409,0.0187 0.028995,0.0467 0.012276,0.056 -0.2274346,0.1258 -0.20919134,0.12029 -0.2098482,0.0445 -0.001783,-0.0485 -0.006711,-0.0968 -0.0123555,-0.14493 -0.0200126,-0.14373 -0.0570971,-0.28519 -0.0602881,-0.43112 -0.004797,-0.40319 -0.0154575,-0.80638 -0.0408645,-1.20887 -0.0320906,-0.48171 -0.0630037,-0.96426 -0.11929994,-1.44373 -0.0505729,-0.31851 -0.10421897,-0.63688 -0.18871202,-0.94848 0,0 0.21762344,-0.006 0.21762344,-0.006 z"
         id="path6093"
         style="fill:none;fill-opacity:1;stroke:#000000;stroke-width:0.40000001;stroke-linejoin:round;stroke-miterlimit:4;stroke-dasharray:none;stroke-opacity:1" />
      <path
         inkscape:connector-curvature="0"
         d="m 4.0302693,153.52547 c -0.1348899,0.26878 -0.248693,0.54692 -0.3446068,0.83176 -0.1150483,0.32729 -0.1757006,0.67062 -0.2242556,1.01316 -0.04211,0.34001 -0.051305,0.68278 -0.05641,1.02498 0.00534,0.21033 -0.01451,0.42264 0.00868,0.63211 0.01715,0.1377 0.076889,0.26716 0.1522667,0.38246 0.077176,0.10851 0.1763781,0.19224 0.289257,0.26107 0.1281274,0.0683 0.2721187,0.082 0.4144047,0.0909 0.024363,8e-4 0.097428,0.004 0.07309,0.003 -0.16588,-0.01 -0.1885093,0.001 -0.068174,-0.0175 0.073088,-0.0114 0.1410108,-0.029 0.2113378,-0.0516 0.1376558,-0.0486 0.2518572,-0.13069 0.3625898,-0.22302 0.079327,-0.0884 0.1656852,-0.16927 0.2489247,-0.2536 0.092058,-0.10166 0.1410333,-0.23437 0.194387,-0.35885 0.074017,-0.17359 0.1129514,-0.35656 0.1531017,-0.53984 0.051728,-0.21638 0.070655,-0.43802 0.081941,-0.65959 0.00511,-0.2404 0.017256,-0.48159 -5.556e-4,-0.7216 -0.017677,-0.1916 -0.047196,-0.38443 -0.1105667,-0.56666 -0.042429,-0.1037 -0.1136931,-0.19438 -0.1885122,-0.27682 -0.102648,-0.11229 -0.2242638,-0.20251 -0.3431074,-0.29633 -0.1251263,-0.10661 -0.2618449,-0.19772 -0.401601,-0.28359 -0.072288,-0.0414 -0.1474732,-0.0741 -0.2288747,-0.0921 -0.016642,-0.004 -0.067234,-0.009 -0.050211,-0.01 0.055229,-0.003 0.1105739,0.002 0.1658607,0.004 -0.1217432,0.006 -0.2288037,0.055 -0.3356128,0.10843 -0.077064,0.04 -0.1334802,0.0902 -0.1816979,0.16147 0,0 -0.2172692,-0.0126 -0.2172692,-0.0126 v 0 c 0.048079,-0.0764 0.1026017,-0.12956 0.1825787,-0.17299 0.1078769,-0.0536 0.2134467,-0.1087 0.3363896,-0.11762 0.2356075,-2e-4 0.3513069,-0.01 0.5451494,0.10919 0.1401228,0.0861 0.2750925,0.18047 0.4013491,0.28614 0.1199853,0.0942 0.2415651,0.18656 0.344461,0.30012 0.074638,0.0863 0.1481487,0.17739 0.1882473,0.28549 0.061462,0.18474 0.092576,0.37856 0.1092989,0.57218 0.017735,0.24092 0.00534,0.48298 7.673e-4,0.72429 -0.011118,0.22273 -0.030237,0.44556 -0.081799,0.66315 -0.039994,0.1846 -0.078568,0.36889 -0.1524521,0.54394 -0.053686,0.12658 -0.1031063,0.26136 -0.1935544,0.36675 -0.080905,0.0872 -0.174766,0.16269 -0.2500632,0.25599 -0.1122453,0.0931 -0.2243077,0.18009 -0.3632952,0.23116 -0.2091306,0.0706 -0.4252452,0.0917 -0.6470742,0.0719 -0.1437751,-0.0107 -0.2884345,-0.0282 -0.415834,-0.10143 -0.1132187,-0.0726 -0.2135037,-0.15886 -0.290177,-0.27067 -0.074739,-0.11974 -0.1359686,-0.25086 -0.1519912,-0.39249 -0.022254,-0.2105 -0.0023,-0.42351 -0.00657,-0.6348 0.00579,-0.34309 0.016118,-0.68668 0.057608,-1.02764 0.048582,-0.34376 0.1083533,-0.68859 0.2236904,-1.0171 0.095867,-0.28593 0.2106785,-0.5644 0.3417073,-0.83609 0,0 0.217188,0.0113 0.217188,0.0113 z"
         id="path6095"
         style="fill:none;fill-opacity:1;stroke:#000000;stroke-width:0.40000001;stroke-linejoin:round;stroke-miterlimit:4;stroke-dasharray:none;stroke-opacity:1" />
      <path
         inkscape:connector-curvature="0"
         d="m 6.9405859,153.37939 c 0.1040836,0.37438 0.1800241,0.75596 0.2556737,1.1369 0.1085398,0.47061 0.2019975,0.94398 0.2877196,1.41923 0.070789,0.32947 0.1194938,0.66306 0.1966375,0.99116 0.05655,0.22008 0.1111854,0.44145 0.1863747,0.65606 0.045668,0.11956 0.029211,0.1417 0.1409766,0.19231 0.035152,0.0164 0.070229,0.0313 0.1077137,0.0414 0.010996,0.003 0.044561,0.008 0.033177,0.008 -0.2399355,0.006 -0.2452076,0.009 -0.1677707,-0.009 0.032638,-0.0166 0.073759,-0.0213 0.1033576,-0.0436 0.046661,-0.13758 0.065577,-0.28321 0.08939,-0.42618 0.04836,-0.36961 0.058778,-0.74258 0.088959,-1.11393 0.032999,-0.41043 0.040489,-0.82193 0.073743,-1.23231 0.017105,-0.20695 0.038213,-0.41359 0.050044,-0.62095 0.0054,-0.11166 0.00478,-0.2235 0.00484,-0.33526 -5.027e-4,-0.11838 -2.91e-4,-0.23676 -6.35e-4,-0.35514 -0.00721,-0.10057 0.00259,-0.19524 0.032843,-0.29111 0.020238,-0.0643 0.029739,-0.13141 0.037291,-0.19823 -0.00373,-0.13184 0.1995247,-0.09 0.2630577,0.031 0.1053931,0.24869 0.1703734,0.51082 0.2316642,0.77304 0.1101098,0.45475 0.2122847,0.91172 0.3393932,1.36211 0.086949,0.30422 0.2014077,0.59811 0.3257645,0.88856 0.07815,0.18356 0.1536359,0.36792 0.2244963,0.55444 0.046828,0.11024 0.070561,0.22563 0.079288,0.34441 0.018627,0.10377 0.046403,0.20547 0.06429,0.30936 5.291e-4,0.0614 0.026689,0.11133 0.045765,0.16798 0.02624,0.0964 0.05757,0.19098 0.08135,0.28822 0.01377,0.0316 0.0052,0.0792 0.03255,0.10511 0.0039,0.004 0.02089,0.005 0.01553,0.005 -0.2094093,-0.0247 -0.2248392,0.0334 -0.1819069,-0.0571 0.027512,-0.14965 0.029293,-0.30383 0.044693,-0.45569 0.0199,-0.311 0.04875,-0.62079 0.07966,-0.93086 0.0224,-0.32482 0.08434,-0.6448 0.129006,-0.96686 0.03832,-0.32856 0.08451,-0.65586 0.112719,-0.98554 0.01122,-0.22023 0.05369,-0.43693 0.07531,-0.65619 0.01592,-0.15443 0.0058,-0.30973 0.03993,-0.46168 0.01425,-0.0546 0.03664,-0.10601 0.04708,-0.16156 0.0024,-0.0131 0.0039,-0.0263 0.0047,-0.0395 0,0 0.219759,1.9e-4 0.219759,1.9e-4 v 0 c -9e-4,0.0146 -0.0025,0.0291 -0.0052,0.0434 -0.01054,0.0561 -0.03172,0.10793 -0.04838,0.16243 -0.03573,0.15073 -0.02482,0.3054 -0.04124,0.45888 -0.02174,0.21924 -0.06471,0.43577 -0.07663,0.65593 -0.02951,0.32994 -0.07604,0.65761 -0.113864,0.9866 -0.04448,0.3218 -0.105729,0.64157 -0.128493,0.96606 -0.03101,0.31004 -0.06039,0.61974 -0.07857,0.93085 -0.01493,0.15428 -0.01569,0.31042 -0.04198,0.46274 -0.06911,0.16331 -0.3162584,0.10773 -0.3025027,-0.0565 -0.023564,-0.0966 -0.055369,-0.19045 -0.081855,-0.28612 -0.020516,-0.0571 -0.044957,-0.10953 -0.045818,-0.17161 -0.017629,-0.10457 -0.045591,-0.20693 -0.063803,-0.31141 -0.00893,-0.11658 -0.032724,-0.22979 -0.078175,-0.33817 -0.070713,-0.18609 -0.1453697,-0.37033 -0.2230503,-0.55362 -0.1240041,-0.29126 -0.2365589,-0.58651 -0.323052,-0.89143 -0.1258425,-0.45103 -0.2274665,-0.90841 -0.3395448,-1.36299 -0.06231,-0.26044 -0.1279229,-0.52134 -0.2366823,-0.76707 -0.096936,-0.16962 0.214843,-0.14401 0.1739731,-0.0393 -0.00837,0.0681 -0.018058,0.13665 -0.038052,0.20248 -0.03099,0.0935 -0.040228,0.18569 -0.033307,0.28426 -9.82e-5,0.11838 5.027e-4,0.23677 3.968e-4,0.35515 1.403e-4,0.11221 0.00124,0.22452 -0.00459,0.33662 -0.01369,0.2075 -0.036277,0.41424 -0.054409,0.62137 -0.034691,0.4103 -0.041347,0.82181 -0.074193,1.23227 -0.030103,0.37191 -0.040623,0.74527 -0.086669,1.11568 -0.023334,0.14619 -0.043421,0.29415 -0.085884,0.4359 -0.017873,0.0371 -0.070089,0.0389 -0.1048689,0.0571 -0.134656,0.0645 -0.2836992,0.0151 -0.407579,-0.0422 -0.098377,-0.0467 -0.1058355,-0.10986 -0.1407425,-0.20986 -0.073635,-0.21572 -0.1287494,-0.4375 -0.1845905,-0.65834 -0.076341,-0.32852 -0.1244285,-0.66245 -0.1943515,-0.99233 -0.084528,-0.47527 -0.1776542,-0.94849 -0.2864805,-1.41884 -0.07646,-0.38082 -0.1529131,-0.76253 -0.2615372,-1.13574 0,0 0.2173623,-0.005 0.2173623,-0.005 z"
         id="path6097"
         style="fill:none;fill-opacity:1;stroke:#000000;stroke-width:0.40000001;stroke-linejoin:round;stroke-miterlimit:4;stroke-dasharray:none;stroke-opacity:1" />
      <path
         inkscape:connector-curvature="0"
         d="m 13.65745,153.27082 c -0.334822,0.0677 -0.637154,0.21857 -0.926794,0.39387 -0.227601,0.14582 -0.451731,0.30274 -0.614273,0.52139 -0.128834,0.18435 -0.196423,0.40001 -0.242483,0.61779 -0.01546,0.17435 -0.02405,0.35659 0.07962,0.50531 0.04576,0.032 0.06941,0.0546 0.125608,0.0687 0.02703,0.007 0.110948,0.008 0.0831,0.009 -0.03868,0.002 -0.110985,0.0304 -0.115858,-0.008 -0.0048,-0.0378 0.07537,-0.0125 0.111875,-0.0234 0.04192,-0.0125 0.08178,-0.0311 0.122673,-0.0467 0.229686,-0.10761 0.433741,-0.25981 0.655805,-0.38107 0.184693,-0.0864 0.413251,-0.13076 0.60298,-0.0281 0.148041,0.11181 0.233116,0.27552 0.302874,0.44305 0.0684,0.22439 0.10627,0.45786 0.14369,0.6893 0.03224,0.23023 0.04678,0.46372 0.03385,0.69588 -0.01078,0.18213 -0.05082,0.36049 -0.107038,0.5336 -0.08406,0.19956 -0.178803,0.39554 -0.281242,0.58643 -0.0789,0.15667 -0.159151,0.31223 -0.282052,0.43882 -0.09058,0.084 -0.188507,0.15874 -0.305516,0.19994 -0.220508,0.0563 -0.44874,0.0415 -0.673709,0.0353 -0.173177,-0.0164 -0.334805,-0.0753 -0.4923,-0.14595 -0.134178,-0.0701 -0.256014,-0.15981 -0.386117,-0.23689 -0.05291,-0.0419 -0.09012,-0.0987 -0.130825,-0.15171 -0.02291,-0.0252 -0.03556,-0.0445 -0.0395,-0.0779 0.01168,-0.0405 0.0031,-0.0193 0.02864,-0.0625 0,0 0.218208,0.0122 0.218208,0.0122 v 0 c -0.02352,0.0353 -0.01525,0.019 -0.02753,0.0474 0.0038,0.0273 0.02223,0.0448 0.03866,0.0664 0.03912,0.0514 0.07549,0.10612 0.129281,0.14354 0.128492,0.0778 0.249625,0.16752 0.384501,0.23435 0.157744,0.0683 0.319194,0.12485 0.49189,0.13901 -0.04597,0.002 -0.09201,0.003 -0.137917,0.007 -0.0258,0.002 0.05173,-0.001 0.07757,-0.002 0.101729,-0.004 0.203856,-0.0118 0.303281,-0.035 0.117738,-0.0351 0.213516,-0.10826 0.304326,-0.18969 0.125012,-0.1229 0.2052,-0.27679 0.283345,-0.43249 0.102574,-0.18934 0.195715,-0.38458 0.279938,-0.58263 0.05674,-0.17104 0.09642,-0.34776 0.108312,-0.52792 0.01289,-0.23066 -0.0021,-0.46248 -0.03415,-0.6912 -0.03736,-0.22973 -0.07374,-0.46191 -0.143542,-0.68416 -0.06961,-0.16285 -0.153434,-0.32455 -0.303213,-0.42769 -0.114696,-0.0535 -0.06365,-0.0178 0.09809,-0.0403 0.01912,-0.003 -0.0387,-0.004 -0.05788,-0.001 -0.07332,0.008 -0.144099,0.0422 -0.21147,0.0691 -0.2245,0.11876 -0.428587,0.27213 -0.657316,0.38345 -0.234851,0.096 -0.549499,0.16794 -0.758442,-0.013 -0.100309,-0.15716 -0.09592,-0.34193 -0.07853,-0.52258 0.04641,-0.2205 0.113747,-0.43942 0.242731,-0.62696 0.161171,-0.22324 0.387948,-0.38164 0.6173,-0.52961 0.289112,-0.17644 0.590025,-0.33044 0.924396,-0.40126 0,0 0.215163,0.0293 0.215163,0.0293 z"
         id="path6099"
         style="fill:none;fill-opacity:1;stroke:#000000;stroke-width:0.40000001;stroke-linejoin:round;stroke-miterlimit:4;stroke-dasharray:none;stroke-opacity:1" />
    </g>
    <path
       style="fill:none;fill-opacity:1;stroke:#000000;stroke-width:0.40000001;stroke-linejoin:round;stroke-miterlimit:4;stroke-dasharray:none;stroke-opacity:1"
       id="path6107"
       d="m 51.692693,139.10261 c -0.0021,0.41373 0.04635,0.82621 0.0919,1.23689 0.06657,0.58653 0.16101,1.168 0.272124,1.74751 0.05892,0.27971 0.123605,0.55848 0.202687,0.83326 0.03922,0.0337 0.251219,0.17172 -0.158795,-0.006 -0.01611,-0.007 0.01164,-0.0332 0.01545,-0.0504 0.01013,-0.0456 0.01564,-0.0921 0.02492,-0.13791 0.02347,-0.17467 0.08229,-0.33469 0.177057,-0.48222 0.165153,-0.17411 0.389017,-0.2791 0.608245,-0.36811 0.382074,-0.14551 0.781698,-0.23183 1.184219,-0.29676 0.332005,-0.0481 0.667253,-0.0766 1.002147,-0.0323 0.114541,0.0152 0.202845,0.0736 0.301453,0.1264 0.308086,0.22977 0.432591,0.57932 0.53276,0.93465 0.116985,0.46419 0.119938,0.94116 0.09334,1.41571 -0.03922,0.5184 -0.161248,1.02445 -0.307811,1.52159 -0.120764,0.40802 -0.292571,0.79629 -0.510149,1.16128 -0.198339,0.32748 -0.446799,0.55772 -0.793401,0.71584 -0.269372,0.0989 -0.555553,0.13869 -0.839851,0.16563 -0.325331,0.0444 -0.652425,0.0701 -0.980244,0.086 -0.27641,-10e-4 -0.561835,0.0426 -0.835578,-0.009 -0.106365,-0.0229 -0.209753,-0.0695 -0.296082,-0.13588 -0.123735,-0.12927 -0.180035,-0.30354 -0.224745,-0.47275 -0.0077,-0.041 -0.0154,-0.0821 -0.0231,-0.12308 0,0 0.215665,-0.004 0.215665,-0.004 v 0 c 0.0078,0.0405 0.01558,0.081 0.02336,0.12148 0.04467,0.16453 0.09989,0.33655 0.22583,0.45808 0.08734,0.062 0.18919,0.10598 0.294542,0.12595 0.133173,0.0222 0.04278,0.002 -0.06691,0.0183 -0.03019,0.004 0.06103,-5.3e-4 0.09154,-0.001 0.127836,-0.002 0.255656,-0.005 0.383407,-0.0104 0.3277,-0.0152 0.654865,-0.0394 0.979901,-0.0851 0.283749,-0.0256 0.568854,-0.0647 0.839065,-0.15862 0.347218,-0.15185 0.595566,-0.37745 0.793903,-0.70269 0.218017,-0.36299 0.389316,-0.74978 0.511014,-1.1559 0.147418,-0.49526 0.269695,-0.99977 0.30839,-1.51666 0.02596,-0.47228 0.02289,-0.94705 -0.0952,-1.40865 -0.09988,-0.35036 -0.223684,-0.69613 -0.532897,-0.91722 -0.04717,-0.0241 -0.09228,-0.0527 -0.141518,-0.0722 -0.05121,-0.0203 -0.110328,-0.0199 -0.158501,-0.0466 -0.0127,-0.007 0.05333,-0.0182 0.03888,-0.0197 -0.205944,-0.0206 -0.415116,0.0376 -0.619048,0.0508 -0.401442,0.0633 -0.799844,0.14859 -1.181132,0.29237 -0.217326,0.0857 -0.436036,0.18989 -0.604867,0.35511 -0.09504,0.14445 -0.154511,0.30145 -0.176363,0.47406 -0.004,0.0201 -0.01871,0.18874 -0.0396,0.19672 -0.149069,0.057 -0.216321,0.097 -0.27723,-0.001 -0.07442,-0.27613 -0.137473,-0.55525 -0.195604,-0.83522 -0.109509,-0.58028 -0.203856,-1.16234 -0.272182,-1.74911 -0.04689,-0.41155 -0.09511,-0.8246 -0.0982,-1.23925 0,0 0.21721,0 0.21721,0 z"
       inkscape:connector-curvature="0"
       inkscape:export-xdpi="96"
       inkscape:export-ydpi="96" />
    <path
       style="fill:none;fill-opacity:1;stroke:#000000;stroke-width:0.40000001;stroke-linejoin:round;stroke-miterlimit:4;stroke-dasharray:none;stroke-opacity:1"
       id="path6109"
       d="m 51.253511,139.36565 c 0.325887,-0.0324 0.64489,-0.11119 0.965904,-0.17337 0.371512,-0.0755 0.743148,-0.1498 1.113803,-0.22943 0.243097,-0.0471 0.48631,-0.0939 0.727747,-0.14902 0.214646,-0.0621 0.426932,-0.13206 0.63926,-0.20168 0.149087,-0.0454 0.29637,-0.0966 0.445844,-0.14063 0.121192,-0.0299 0.236942,-0.0748 0.359304,-0.10081 0.09842,-0.0302 0.195527,-0.0634 0.296942,-0.0822 0.07908,-0.0116 0.159081,-0.0139 0.238876,-0.0152 0.0842,-7.9e-4 0.01294,-0.002 0.207217,0.0527 0,0 -0.217773,-0.018 -0.217773,-0.018 v 0 c 0.252513,-7.9e-4 0.32813,-5.3e-4 0.226856,-7.9e-4 -0.07978,5.3e-4 -0.159676,0.002 -0.23899,0.0116 -0.101994,0.0159 -0.199935,0.0473 -0.297186,0.0814 -0.122986,0.0244 -0.238662,0.068 -0.359542,0.0991 -0.150251,0.0422 -0.296989,0.096 -0.446876,0.13962 -0.21219,0.0711 -0.425818,0.13788 -0.639704,0.20363 -0.241697,0.057 -0.486026,0.10217 -0.729808,0.14911 -0.371062,0.0792 -0.742834,0.15424 -1.114653,0.22976 -0.319968,0.0615 -0.63754,0.14141 -0.962012,0.17536 0,0 -0.215209,-0.0314 -0.215209,-0.0314 z"
       inkscape:connector-curvature="0"
       inkscape:export-xdpi="96"
       inkscape:export-ydpi="96" />
    <path
       style="fill:none;fill-opacity:1;stroke:#000000;stroke-width:0.40000001;stroke-linejoin:round;stroke-miterlimit:4;stroke-dasharray:none;stroke-opacity:1"
       id="path6111"
       d="m 74.394699,144.15632 c 0.298196,0.0382 0.554324,-0.007 0.892056,-0.0355 0.337535,-0.0299 0.675958,-0.0464 1.014646,-0.0547 0.289824,0.007 0.586975,0.0117 0.873191,0.0664 0.104074,0.027 0.208034,0.0533 0.314261,0.0702 0.0071,-0.0207 0.116771,0.0295 0.0496,0.0418 0,0 -0.218647,-0.018 -0.218647,-0.018 v 0 c 0.02207,-0.0348 0.04961,0.0348 -0.0475,0.007 -0.105394,-0.0183 -0.208449,-0.0462 -0.312518,-0.0707 -0.133646,-0.0229 -0.269396,-0.0334 -0.404386,-0.0463 -0.04065,-0.004 -0.0843,0.005 -0.122042,-0.0106 -0.02495,-0.0103 0.05382,-0.004 0.08073,-0.006 -0.339439,0.008 -0.678648,0.0233 -1.016944,0.053 -0.437195,0.0371 -0.880999,0.091 -1.31834,0.032 0,0 0.215892,-0.0281 0.215892,-0.0281 z"
       inkscape:connector-curvature="0"
       inkscape:export-xdpi="96"
       inkscape:export-ydpi="96" />
    <path
       style="fill:none;fill-opacity:1;stroke:#000000;stroke-width:0.40000001;stroke-linejoin:round;stroke-miterlimit:4;stroke-dasharray:none;stroke-opacity:1"
       id="path6117"
       d="m 77.475965,140.96314 c 0.246878,-0.0868 0.48055,-0.20313 0.710071,-0.32769 0.199657,-0.11342 0.391916,-0.23764 0.564316,-0.38954 0.16255,-0.14236 0.278114,-0.32679 0.393309,-0.50721 0.07419,-0.11034 0.138086,-0.22715 0.166142,-0.35777 0.0049,-0.0804 0.02674,-0.15628 0.05495,-0.2313 0.0077,-0.0202 0.01638,-0.04 0.0259,-0.0593 0.0011,-0.002 7.93e-4,-0.003 0.0013,-0.005 0.07288,0.0154 0.15141,0.0142 0.218633,0.0463 0.0059,0.003 -0.02077,0.25011 -0.02246,0.26581 -0.04578,0.43781 -0.08534,0.87621 -0.124331,1.31472 -0.04915,0.57894 -0.09833,1.15749 -0.125989,1.73793 -0.01775,0.41744 -0.02236,0.83525 -0.02326,1.25301 -2.64e-4,0.21587 7.94e-4,0.43174 0.0016,0.64761 -0.02617,0.19925 -0.0382,0.40055 -0.06864,0.59914 -0.02691,0.15995 -0.055,0.31974 -0.06916,0.48141 -0.0083,0.11461 -0.0083,0.22956 -0.0086,0.34439 -2.65e-4,0.11265 5.29e-4,0.22529 7.94e-4,0.33794 -4.5e-5,0.0852 5.29e-4,0.17043 2.64e-4,0.25565 0.0066,0.11588 -0.02611,0.22814 -0.04466,0.34163 -0.01831,0.10252 -0.0249,0.20617 -0.02783,0.31008 -0.0013,0.0545 -0.0013,0.10912 -7.93e-4,0.16368 1.11e-4,0.0149 2.64e-4,0.0299 5.29e-4,0.0448 -0.0136,0.0232 -0.0034,0.0166 -0.03122,0.0186 0,0 -0.216512,-0.0338 -0.216512,-0.0338 v 0 c 0.02606,8e-4 0.01744,-0.006 0.02798,0.0155 -3.1e-5,-0.015 -5.5e-5,-0.03 -6.6e-5,-0.0451 -4.5e-5,-0.0548 -2.3e-5,-0.10963 0.0019,-0.16442 0.0033,-0.10488 0.0092,-0.20954 0.0285,-0.31293 0.01805,-0.11237 0.05056,-0.22348 0.04361,-0.33812 -9.2e-5,-0.0852 2.65e-4,-0.17042 1.9e-5,-0.25563 -2.52e-4,-0.11267 -1.6e-5,-0.22534 -2.65e-4,-0.33801 9e-5,-0.11546 9.5e-5,-0.23103 0.0087,-0.34626 0.01431,-0.16221 0.04387,-0.32229 0.07049,-0.48283 0.03089,-0.19737 0.04188,-0.39766 0.06803,-0.59576 -1.42e-4,-0.21593 -2.54e-4,-0.43185 7.94e-4,-0.64777 0.0032,-0.41807 0.009,-0.83618 0.02739,-1.25391 0.02854,-0.58066 0.07775,-1.15951 0.126133,-1.73877 0.0382,-0.43852 0.07628,-0.87701 0.119017,-1.31507 0.0067,-0.0686 0.01611,-0.13695 0.01995,-0.20575 0.0074,-0.1328 -0.02178,-0.0526 0.217815,-0.087 -0.01061,0.0174 -0.01908,0.0361 -0.0266,0.0552 -0.02905,0.0738 -0.05098,0.14822 -0.05542,0.22781 -0.02777,0.13351 -0.09217,0.25323 -0.168503,0.3655 -0.116012,0.18158 -0.231034,0.36848 -0.393258,0.51322 -0.172638,0.15414 -0.365556,0.2795 -0.566367,0.39427 -0.228817,0.12495 -0.461264,0.24331 -0.707803,0.32999 0,0 -0.216132,-0.0253 -0.216132,-0.0253 z"
       inkscape:connector-curvature="0"
       inkscape:export-xdpi="96"
       inkscape:export-ydpi="96" />
    <path
       style="fill:none;fill-opacity:1;stroke:#000000;stroke-width:0.40000001;stroke-linejoin:round;stroke-miterlimit:4;stroke-dasharray:none;stroke-opacity:1"
       id="path6119"
       d="m 100.62119,139.46759 c 0.19289,-0.26193 0.40116,-0.50837 0.63295,-0.73655 0.24947,-0.24666 0.55298,-0.41757 0.86153,-0.57762 0.24626,-0.1072 0.5179,-0.20993 0.79072,-0.21945 0.1165,-0.004 0.23313,0.002 0.34969,0.003 0.33114,0.0388 0.50008,0.29306 0.64946,0.56274 0.17227,0.37271 0.22009,0.78374 0.22877,1.18989 -0.018,0.39933 -0.10359,0.79593 -0.23751,1.17198 -0.11721,0.30164 -0.31215,0.55833 -0.5272,0.79612 -0.22362,0.24796 -0.47841,0.46303 -0.73836,0.67125 -0.19556,0.15437 -0.40382,0.29089 -0.61152,0.42802 -0.0675,0.0463 -0.1336,0.0949 -0.19629,0.14758 -0.0673,-0.0189 -0.14424,-0.0174 -0.20201,-0.0568 -0.0184,-0.0126 0.025,-0.0373 0.0404,-0.0535 0.1089,-0.11559 0.25477,-0.17409 0.39725,-0.23572 0.37236,-0.14968 0.76878,-0.22943 1.16717,-0.26563 0.55988,-0.0222 0.8806,0.005 1.33138,0.33501 0.29564,0.26026 0.45447,0.61304 0.58718,0.97493 0.14906,0.45621 0.16633,0.86794 0.10318,1.34021 -0.0898,0.54412 -0.30295,1.05423 -0.51711,1.55862 -0.17135,0.41391 -0.38206,0.80941 -0.6291,1.18263 -0.19007,0.27558 -0.45085,0.47901 -0.74609,0.63017 -0.28935,0.14585 -0.60503,0.20313 -0.92415,0.2346 -0.36021,0.0226 -0.7117,-0.0383 -1.06055,-0.11674 -0.20862,-0.036 -0.40511,-0.11122 -0.59916,-0.19272 -0.16619,-0.0789 -0.32345,-0.17474 -0.4735,-0.28088 -0.13096,-0.0848 -0.19274,-0.20703 -0.22522,-0.35465 0.0114,-0.12471 -0.002,-0.0618 0.0444,-0.18795 0,0 0.21631,0.008 0.21631,0.008 v 0 c -0.0457,0.11803 -0.0326,0.0593 -0.0433,0.17533 0.0327,0.1434 0.0962,0.25761 0.22386,0.33869 0.14941,0.10506 0.30657,0.19939 0.47242,0.27628 0.19333,0.0812 0.39041,0.15197 0.5977,0.18904 0.0724,0.0162 0.18862,0.0429 0.26059,0.056 0.0461,0.008 0.0924,0.015 0.1387,0.0219 0.0494,0.007 0.10219,0.002 0.14823,0.0212 0.0199,0.008 -0.0845,0.0108 -0.0632,0.0145 0.0493,0.009 0.10014,5.3e-4 0.15021,5.3e-4 0.31835,-0.0293 0.63403,-0.083 0.9235,-0.22664 0.29488,-0.14626 0.55502,-0.34738 0.74581,-0.61909 0.24798,-0.37174 0.4605,-0.76541 0.6321,-1.17855 0.21372,-0.50248 0.42661,-1.01072 0.5159,-1.55297 0.0626,-0.46936 0.0446,-0.87691 -0.10475,-1.32988 -0.13234,-0.35828 -0.29065,-0.70761 -0.58683,-0.96229 -0.28607,-0.20463 -0.55082,-0.31492 -0.90839,-0.32375 -0.39711,0.0331 -0.7922,0.1119 -1.16371,0.25922 -0.11626,0.0495 -0.22869,0.0937 -0.32975,0.17095 -0.0222,0.017 -0.0439,0.0348 -0.0639,0.0544 -0.0146,0.0143 -0.0198,0.0413 -0.0394,0.0468 -0.0759,0.0212 -0.15641,0.02 -0.23462,0.0299 0.0633,-0.0537 0.13073,-0.1024 0.19867,-0.15 0.2088,-0.13593 0.41768,-0.27195 0.61399,-0.42575 0.25975,-0.20712 0.51476,-0.42074 0.73809,-0.66784 0.2142,-0.23533 0.40914,-0.48912 0.52749,-0.78768 0.13457,-0.37318 0.22012,-0.76735 0.2381,-1.16418 -0.009,-0.40287 -0.0558,-0.81074 -0.2294,-1.17944 -0.1502,-0.26594 -0.31941,-0.51047 -0.64855,-0.54066 0.0252,-0.002 0.10052,-0.0103 0.0757,-0.006 -0.26898,0.0512 -0.54544,0.0755 -0.79065,0.21206 -0.30765,0.15856 -0.61125,0.32665 -0.86074,0.57126 -0.23154,0.22693 -0.44181,0.47044 -0.62983,0.73494 0,0 -0.2166,-0.0154 -0.2166,-0.0154 z"
       inkscape:connector-curvature="0"
       inkscape:export-xdpi="96"
       inkscape:export-ydpi="96" />
    <path
       style="fill:none;fill-opacity:1;stroke:#000000;stroke-width:0.40000001;stroke-linejoin:round;stroke-miterlimit:4;stroke-dasharray:none;stroke-opacity:1"
       id="path6121"
       d="m 53.673216,164.84021 c -0.266076,0.0409 -0.510411,0.14901 -0.72494,0.30889 -0.313188,0.26074 -0.54559,0.5884 -0.736709,0.94451 -0.231881,0.45295 -0.328607,0.95606 -0.414861,1.45301 -0.09972,0.52633 -0.07953,1.05259 0.0013,1.5785 0.101007,0.49726 0.304874,0.96298 0.562856,1.39721 0.201192,0.3383 0.432948,0.64361 0.726593,0.90554 0.246251,0.18643 0.543944,0.22937 0.842751,0.2535 0.360945,0.0111 0.388731,0.0189 0.704459,0.001 0.30598,-0.0177 0.606583,-0.0737 0.896273,-0.17274 0.286737,-0.0881 0.503989,-0.2716 0.707165,-0.48388 0.208116,-0.21615 0.373499,-0.46604 0.519099,-0.72708 0.122854,-0.25176 0.222264,-0.51258 0.309973,-0.77823 0.08856,-0.24897 0.105489,-0.5121 0.117964,-0.7736 0.01323,-0.29683 -0.02096,-0.59345 -0.06587,-0.88637 -0.04681,-0.26482 -0.125915,-0.52184 -0.194106,-0.7815 -0.05741,-0.23064 -0.141412,-0.44702 -0.262549,-0.65113 -0.121631,-0.18288 -0.248986,-0.36328 -0.356402,-0.55496 -0.08879,-0.15254 -0.191137,-0.29381 -0.312176,-0.42199 -0.08985,-0.12114 -0.199417,-0.22328 -0.312584,-0.32201 -0.06481,-0.0693 -0.148162,-0.11214 -0.226552,-0.16323 -0.09978,-0.0455 -0.204028,-0.08 -0.311423,-0.10288 0.04666,-0.009 -0.211463,-0.0129 -0.158522,-0.0179 0.04044,-0.004 0.08811,-0.0189 0.121814,0.004 0.02896,0.0195 -0.06976,0.004 -0.104431,0.008 -0.108,0.0127 -0.131628,0.0218 -0.239723,0.0475 -0.255588,0.0694 -0.51136,0.13944 -0.754483,0.24549 -0.165582,0.0788 -0.319474,0.17811 -0.477732,0.26969 -0.06134,0.0422 -0.03134,0.0195 -0.08987,0.0682 0,0 -0.217072,-0.0188 -0.217072,-0.0188 v 0 c 0.05875,-0.0514 0.02856,-0.0273 0.09042,-0.0724 0.160674,-0.0891 0.3136,-0.19254 0.48015,-0.27159 0.242811,-0.10851 0.498933,-0.17878 0.754912,-0.24925 0.264012,-0.0666 0.539932,-0.0923 0.81017,-0.042 0.107804,0.0252 0.214754,0.0594 0.313169,0.11049 0.07908,0.051 0.160888,0.0971 0.226266,0.16647 0.112485,0.10002 0.220665,0.20386 0.311984,0.32414 0.121009,0.12981 0.222699,0.27352 0.311663,0.42721 0.108749,0.19085 0.235003,0.37152 0.356261,0.55457 0.120751,0.20625 0.204428,0.42482 0.261988,0.6571 0.06874,0.26027 0.147508,0.51815 0.193948,0.78379 0.0444,0.29442 0.0789,0.59238 0.0657,0.89063 -0.01225,0.26339 -0.02803,0.52871 -0.117457,0.77947 -0.08816,0.26695 -0.188423,0.52877 -0.310798,0.78225 -0.145648,0.26283 -0.311065,0.51444 -0.51943,0.73253 -0.203626,0.21458 -0.419444,0.40379 -0.708073,0.49406 -0.289729,0.10181 -0.590669,0.15985 -0.897561,0.17849 -0.375574,0.0242 -0.75329,0.0136 -1.129128,-0.001 -0.301006,-0.0267 -0.599057,-0.075 -0.843937,-0.26737 -0.290591,-0.26327 -0.525012,-0.57453 -0.724442,-0.91219 -0.257529,-0.43726 -0.46173,-0.90553 -0.562456,-1.4053 -0.08111,-0.52815 -0.100513,-1.05677 -0.0011,-1.58533 0.08614,-0.499 0.182626,-1.00436 0.413795,-1.45981 0.192487,-0.3621 0.420331,-0.68591 0.734981,-0.95385 0.212783,-0.16446 0.45702,-0.27459 0.723461,-0.32049 0,0 0.215209,0.0314 0.215209,0.0314 z"
       inkscape:connector-curvature="0"
       inkscape:export-xdpi="96"
       inkscape:export-ydpi="96" />
    <path
       style="fill:none;fill-opacity:1;stroke:#000000;stroke-width:0.40000001;stroke-linejoin:round;stroke-miterlimit:4;stroke-dasharray:none;stroke-opacity:1"
       id="path6123"
       d="m 74.041213,169.8397 c 0.303448,-0.06 0.60139,-0.14211 0.900626,-0.21938 0.321408,-0.0908 0.646615,-0.16501 0.972743,-0.23616 0.274654,-0.0628 0.555049,-0.0918 0.835835,-0.10775 0.248285,-0.0115 0.496943,-0.009 0.745408,-0.009 0.0448,2.3e-4 0.08961,2.5e-4 0.134406,10e-4 0.06855,-2.7e-4 0.0154,5.3e-4 -0.158113,-0.0207 0,0 0.216805,0.0231 0.216805,0.0231 v 0 c -0.267787,0.0322 -0.175297,0.0333 -0.275688,0.0315 -0.04419,-5.3e-4 -0.08839,-0.001 -0.132582,-0.001 0.05181,-5e-5 0.10361,-9e-5 0.155416,-1.4e-4 0.02426,-2e-5 -0.04854,-3e-5 -0.07281,5e-5 -0.133212,5.3e-4 -0.266443,0.002 -0.399547,0.008 -0.280903,0.0147 -0.561605,0.042 -0.83648,0.10415 -0.326089,0.0717 -0.651987,0.14337 -0.973207,0.23532 -0.298389,0.0763 -0.594767,0.16056 -0.897292,0.21997 0,0 -0.215519,-0.0288 -0.215519,-0.0288 z"
       inkscape:connector-curvature="0"
       inkscape:export-xdpi="96"
       inkscape:export-ydpi="96" />
    <path
       style="fill:none;fill-opacity:1;stroke:#000000;stroke-width:0.40000001;stroke-linejoin:round;stroke-miterlimit:4;stroke-dasharray:none;stroke-opacity:1"
       id="path6125"
       d="m 81.285859,164.25371 c -0.03134,0.58713 -0.155709,1.16301 -0.294785,1.73249 -0.185179,0.72425 -0.372383,1.44818 -0.54106,2.17648 -0.08481,0.38845 -0.183631,0.77329 -0.281294,1.15861 -0.01926,0.12015 -0.06186,0.23377 -0.0918,0.35121 -0.0403,0.11482 -0.08467,0.22827 -0.120581,0.34458 -0.04143,0.12257 -0.08501,0.24304 -0.144672,0.35797 -0.0029,0.002 -0.06289,0.11875 -0.04475,0.0714 0.06947,-0.008 0.197318,-0.002 -0.121285,-0.003 -0.02072,-7e-5 0.04143,-1.4e-4 0.06214,-2.1e-4 0.217315,-8e-4 -0.05065,1.3e-4 0.20103,-8e-4 0.33541,0.002 0.669608,0.004 1.003567,-0.0297 0.468607,-0.0502 0.905534,-0.22755 1.33645,-0.40721 0.362305,-0.15876 0.73093,-0.30568 1.111698,-0.41381 0.251647,-0.0807 0.50936,-0.13556 0.77198,-0.16262 0.208925,-0.0226 0.419372,-0.0142 0.622077,0.0398 0.111665,0.0388 0.148575,0.0167 -0.202932,0.0195 0,0 0.21727,-0.0222 0.21727,-0.0222 v 0 c -0.168547,0.0434 -0.133776,0.0617 -0.231068,0.0315 -0.04757,-0.0119 -0.09526,-0.0226 -0.143873,-0.0296 -0.02511,-0.004 -0.100108,-0.003 -0.07555,-0.009 0.009,-0.002 0.292745,-0.0105 0.02794,0.002 -0.263117,0.025 -0.52171,0.0773 -0.773604,0.1586 -0.381651,0.10569 -0.7507,0.25253 -1.113301,0.41099 -0.431128,0.18019 -0.86764,0.36028 -1.336257,0.41349 -0.333015,0.0357 -0.666221,0.0348 -1.000887,0.0322 -0.189725,8e-4 -0.386654,0.013 -0.573741,-0.006 -0.01193,-0.0396 0.02944,-0.0684 0.04508,-0.10535 0.06068,-0.1132 0.104307,-0.23223 0.145262,-0.35383 0.0352,-0.11612 0.07884,-0.22947 0.119888,-0.34359 0.03018,-0.11758 0.07286,-0.23123 0.09366,-0.35123 0.10174,-0.38467 0.202615,-0.7693 0.288657,-1.15791 0.170638,-0.72802 0.358529,-1.45196 0.542772,-2.17664 0.137909,-0.56814 0.262067,-1.14332 0.285361,-1.72951 0,0 0.216606,0.002 0.216606,0.002 z"
       inkscape:connector-curvature="0"
       inkscape:export-xdpi="96"
       inkscape:export-ydpi="96" />
    <path
       style="fill:none;fill-opacity:1;stroke:#000000;stroke-width:0.40000001;stroke-linejoin:round;stroke-miterlimit:4;stroke-dasharray:none;stroke-opacity:1"
       id="path6127"
       d="m 82.338219,166.13792 c 0.09208,0.52042 0.165602,1.04341 0.225967,1.56841 0.10433,0.8426 0.142835,1.69131 0.193151,2.53833 0.03831,0.73558 0.08355,1.47083 0.143574,2.20497 0.04239,0.4785 0.11359,0.95309 0.198397,1.42563 0.04888,0.22167 0.0968,0.44362 0.177184,0.65613 0.02558,0.075 0.04887,0.15086 0.06791,0.22781 7.94e-4,0.003 0.0058,0.0109 0.0024,0.0102 -0.240639,-0.0456 -0.218252,0.02 -0.216316,-0.12247 0,0 0.217448,2.1e-4 0.217448,2.1e-4 v 0 c -5.29e-4,0.0804 0.01048,0.32862 -0.22271,0.11726 -0.01797,-0.0762 -0.0405,-0.15124 -0.06608,-0.22519 -0.07959,-0.21381 -0.123941,-0.43775 -0.173127,-0.66018 -0.08348,-0.47329 -0.153421,-0.94861 -0.194646,-1.42772 -0.05786,-0.73437 -0.101724,-1.46977 -0.139674,-2.20543 -0.0496,-0.84673 -0.08838,-1.69514 -0.195238,-2.53713 -0.06191,-0.52449 -0.135994,-1.04722 -0.235286,-1.56608 0,0 0.217093,-0.005 0.217093,-0.005 z"
       inkscape:connector-curvature="0"
       inkscape:export-xdpi="96"
       inkscape:export-ydpi="96" />
    <path
       style="fill:none;fill-opacity:1;stroke:#000000;stroke-width:0.40000001;stroke-linejoin:round;stroke-miterlimit:4;stroke-dasharray:none;stroke-opacity:1"
       id="path6129"
       d="m 101.36281,166.15382 c 0.25795,-0.17718 0.45743,-0.42138 0.65735,-0.65857 0.22652,-0.26836 0.40773,-0.56914 0.57816,-0.8749 0.13549,-0.25876 0.27655,-0.51465 0.40853,-0.77522 0.0428,-0.0887 0.086,-0.17733 0.12255,-0.26882 0.36089,-0.32012 0.17803,0.12189 0.16699,0.15473 -0.1009,0.3638 -0.12155,0.74178 -0.14226,1.11671 -0.0338,0.77206 -0.0657,1.544 -0.0836,2.31663 -0.0273,0.72807 -0.009,1.45537 0.0475,2.18137 0.0343,0.48994 0.0693,0.97954 0.11042,1.46896 0.0186,0.23449 0.0368,0.46909 0.0471,0.70411 0.004,0.13612 0.002,0.27233 0.002,0.40849 -5.3e-4,0.15635 -2.7e-4,0.3127 -2.4e-4,0.46906 -7e-5,0.0863 2.6e-4,0.17268 5.2e-4,0.25902 -2.6e-4,0.10409 0.0233,0.14424 -0.21854,0.006 -0.0223,-0.0128 2.6e-4,-0.0514 5.3e-4,-0.0771 1.6e-4,-0.0334 2.5e-4,-0.0667 2.6e-4,-0.10009 0,0 0.21651,0 0.21651,0 v 0 c 1.3e-4,0.0334 2.2e-4,0.0667 2.6e-4,0.10009 1.3e-4,0.0257 0.0228,0.0643 5.3e-4,0.0771 -0.2418,0.13826 -0.21825,0.0981 -0.21855,-0.006 2.1e-4,-0.0863 5.2e-4,-0.17269 7.9e-4,-0.25903 2.6e-4,-0.15636 7.9e-4,-0.31272 7.9e-4,-0.46909 8e-5,-0.13586 8e-4,-0.27176 -0.003,-0.4076 -0.008,-0.23471 -0.0241,-0.46907 -0.0421,-0.7032 -0.0398,-0.48951 -0.0746,-0.97912 -0.10766,-1.46912 -0.0542,-0.72681 -0.0701,-1.45478 -0.0431,-2.18344 0.0175,-0.77277 0.0486,-1.54492 0.0788,-2.31726 0.0189,-0.37667 0.0383,-0.75614 0.13574,-1.12246 0.0549,-0.17348 0.027,-0.12556 0.27466,-0.15565 10e-6,0 -0.006,0.0163 -0.005,0.0162 -0.0379,0.092 -0.0824,0.18111 -0.12592,0.27052 -0.13266,0.26079 -0.27538,0.51635 -0.41035,0.77595 -0.17076,0.30699 -0.35216,0.60912 -0.5788,0.87897 -0.19981,0.23796 -0.39849,0.48346 -0.65432,0.66425 0,0 -0.21634,-0.0206 -0.21634,-0.0206 z"
       inkscape:connector-curvature="0"
       inkscape:export-xdpi="96"
       inkscape:export-ydpi="96" />
  </g>
</svg>
